<?xml version="1.0" standalone="no"?>
<!DOCTYPE svg PUBLIC "-//W3C//DTD SVG 20010904//EN"
 "http://www.w3.org/TR/2001/REC-SVG-20010904/DTD/svg10.dtd">
<svg version="1.0" xmlns="http://www.w3.org/2000/svg"
 width="700.000000pt" height="700.000000pt" viewBox="0 0 700.000000 700.000000"
 preserveAspectRatio="xMidYMid meet">
<metadata>
Created by potrace 1.11, written by Peter Selinger 2001-2013
</metadata>
<g transform="translate(0.000000,700.000000) scale(0.100000,-0.100000)"
fill="#000000" stroke="none">
<path d="M3 5103 c2 -1044 6 -1911 10 -1928 3 -16 11 -73 18 -125 6 -52 13
-104 15 -115 2 -11 6 -33 9 -50 3 -16 8 -41 10 -55 3 -14 7 -34 9 -45 45 -233
156 -562 273 -802 449 -928 1279 -1611 2270 -1868 72 -19 142 -36 155 -39 13
-2 60 -11 106 -20 46 -9 111 -19 145 -22 34 -3 65 -8 68 -9 15 -10 227 -20
409 -20 188 0 341 8 430 21 144 21 295 48 345 61 33 8 67 16 75 18 109 22 388
117 550 188 119 51 305 146 352 178 14 11 29 19 33 19 25 0 384 257 494 354
121 106 294 279 366 366 21 25 41 47 44 50 4 3 45 55 91 115 332 436 547 915
654 1456 14 70 28 155 32 190 3 35 8 67 10 70 9 17 19 214 18 399 0 188 -6
331 -19 420 -3 19 -7 56 -10 81 -3 25 -7 54 -9 65 -2 10 -11 60 -21 109 -85
456 -276 915 -543 1305 -56 82 -194 265 -211 280 -3 3 -35 38 -70 78 -382 436
-898 781 -1460 976 -235 82 -417 125 -666 160 -60 9 -128 19 -150 22 -22 4
-894 9 -1938 11 l-1898 4 4 -1898z m3767 1173 c19 -2 58 -7 85 -11 377 -44
798 -194 1120 -398 194 -123 346 -245 507 -408 459 -465 732 -1050 795 -1704
10 -101 10 -406 0 -505 -12 -122 -14 -132 -27 -210 -128 -782 -588 -1469
-1278 -1908 -298 -190 -704 -340 -1047 -387 -22 -3 -49 -8 -60 -10 -123 -26
-522 -27 -715 -1 -14 2 -50 7 -80 10 -30 4 -95 16 -145 27 -729 159 -1343 577
-1752 1194 -222 334 -372 724 -428 1110 -4 22 -8 51 -10 65 -20 114 -26 447
-13 610 28 324 126 673 276 980 257 526 701 980 1213 1242 215 110 426 191
608 233 76 18 213 45 254 50 27 4 59 9 71 11 12 2 52 6 90 9 39 3 71 7 73 9 6
5 420 -2 463 -8z"/>
<path d="M3388 5419 c-197 -21 -325 -51 -502 -115 -392 -141 -763 -443 -986
-803 -152 -246 -251 -525 -287 -816 -15 -115 -7 -483 12 -538 2 -6 7 -30 10
-52 3 -22 17 -82 31 -135 130 -484 428 -892 852 -1164 86 -55 252 -140 325
-166 28 -10 72 -26 97 -35 87 -32 271 -75 390 -91 30 -4 132 -8 225 -9 383 -4
710 66 1030 220 186 90 415 256 523 379 l32 37 0 664 0 665 -834 0 -834 0 2
-307 1 -308 70 -1 c39 -1 245 -5 459 -8 214 -3 392 -8 394 -11 3 -2 5 -75 5
-161 0 -184 14 -162 -158 -248 -134 -67 -158 -77 -260 -109 -357 -111 -722
-72 -1033 110 -305 178 -507 466 -567 809 -14 81 -22 310 -12 359 3 11 8 40
12 65 19 129 89 306 168 428 58 90 75 111 172 208 229 229 518 349 840 346
122 -1 209 -11 335 -38 14 -3 36 -7 50 -10 65 -13 241 -79 330 -123 91 -45
198 -111 261 -160 l26 -21 74 83 c41 45 90 100 109 121 19 22 46 51 59 65 12
14 49 55 81 91 32 36 79 88 104 115 25 28 46 52 46 55 -1 13 -87 97 -196 191
-35 30 -161 116 -225 153 -40 24 -187 98 -199 101 -3 1 -23 9 -45 19 -34 15
-106 38 -260 86 -39 12 -234 47 -305 55 -85 10 -347 12 -422 4z"/>
</g>
</svg>
