<svg width="2560" height="1323" xmlns="http://www.w3.org/2000/svg"><path d="M-134.323-127.253l1.925 1392.206 20.607-625.074z" fill="#ffcd9b" stroke="#ffcd9b"/><path d="M-134.323-127.253l22.532 767.132 17.253-451.708z" fill="#fff2d1" stroke="#fff2d1"/><path d="M-134.323-127.253l39.785 315.424 38.449-119.888z" fill="#fff9f0" stroke="#fff9f0"/><path d="M-134.323-127.253l78.234 195.536 122.266-99.382z" fill="#fff8f2" stroke="#fff8f2"/><path d="M-134.323-127.253l200.501 96.155 269.778-95.338z" fill="#fff3e7" stroke="#fff3e7"/><path d="M-134.323-127.253l470.279.817 2279.065-5.876z" fill="#fecda8" stroke="#fecda8"/><path d="M66.178-31.099l-122.266 99.382 152.526 44.474z" fill="#fff4e4" stroke="#fff4e4"/><path d="M66.178-31.099l30.26 143.855 73.009-72.382z" fill="#fff1df" stroke="#fff1df"/><path d="M66.178-31.099l103.268 71.474 79.504-84.486z" fill="#fff0e1" stroke="#fff0e1"/><path d="M66.178-31.099l182.773-13.013 87.006-82.325z" fill="#feeedd" stroke="#feeedd"/><path d="M248.95-44.111l-79.504 84.486 259.708 67.552z" fill="#feebd2" stroke="#feebd2"/><path d="M248.95-44.111l180.204 152.039-93.199-234.364z" fill="#fee9d3" stroke="#fee9d3"/><path d="M335.956-126.436l93.199 234.364 135.329-147.092z" fill="#fee4cb" stroke="#fee4cb"/><path d="M335.956-126.436l228.528 87.272 88.189-6.48z" fill="#fee1c5" stroke="#fee1c5"/><path d="M335.956-126.436l316.716 80.792 161.852-22.592z" fill="#feddbf" stroke="#feddbf"/><path d="M335.956-126.436l478.569 58.2 137.863-45.098z" fill="#fed8b8" stroke="#fed8b8"/><path d="M335.956-126.436l616.432 13.102 128.296-.468z" fill="#fed4b2" stroke="#fed4b2"/><path d="M335.956-126.436l744.728 12.634 776.629-8.655z" fill="#fec79e" stroke="#fec79e"/><path d="M335.956-126.436l1521.357 3.979 757.709-9.854z" fill="#f4ae86" stroke="#f4ae86"/><path d="M564.484-39.165l-135.329 147.092 104.937 2.775z" fill="#fee0bc" stroke="#fee0bc"/><path d="M564.484-39.165l-30.393 149.867 101.07-86.945z" fill="#feddbc" stroke="#feddbc"/><path d="M564.484-39.165l70.677 62.923 17.512-69.403z" fill="#fedcbe" stroke="#fedcbe"/><path d="M652.672-45.645l-17.512 69.403 179.364-91.995z" fill="#fed8b8" stroke="#fed8b8"/><path d="M814.525-68.237l-179.364 91.995 209.2 54.236z" fill="#fed5b1" stroke="#fed5b1"/><path d="M814.525-68.237l29.836 146.231 104.548-14.217z" fill="#fed0a8" stroke="#fed0a8"/><path d="M814.525-68.237l134.384 132.013 3.479-177.111z" fill="#fecfaa" stroke="#fecfaa"/><path d="M952.388-113.335l-3.479 177.111 131.775-177.579z" fill="#fecba4" stroke="#fecba4"/><path d="M1080.683-113.802l-131.775 177.579 162.72-5.248z" fill="#fec9a0" stroke="#fec9a0"/><path d="M1080.683-113.802l30.945 172.331 187.534-84.473z" fill="#fdc39a" stroke="#fdc39a"/><path d="M1080.683-113.802l218.48 87.858 145.683-31.498z" fill="#fbbe94" stroke="#fbbe94"/><path d="M1080.683-113.802l364.163 56.36 75.988-15.997z" fill="#faba90" stroke="#faba90"/><path d="M1080.683-113.802l440.151 40.363 152.744-43.085z" fill="#f9b68b" stroke="#f9b68b"/><path d="M1080.683-113.802l592.895-2.722 183.734-5.934z" fill="#f6b187" stroke="#f6b187"/><path d="M1299.163-25.944l-187.534 84.473 140.447 43.653z" fill="#fcbf8f" stroke="#fcbf8f"/><path d="M1299.163-25.944l-47.088 128.126 166.614-15.571z" fill="#fbba88" stroke="#fbba88"/><path d="M1299.163-25.944l119.527 112.554 26.156-144.053z" fill="#f9b88d" stroke="#f9b88d"/><path d="M1444.846-57.442l-26.156 144.053 140.466-71.178z" fill="#f8b386" stroke="#f8b386"/><path d="M1444.846-57.442l114.31 72.874-38.322-88.871z" fill="#f7b288" stroke="#f7b288"/><path d="M1520.834-73.439l38.322 88.871 114.422-131.956z" fill="#f4af86" stroke="#f4af86"/><path d="M1673.578-116.524l-114.422 131.956 180.989 77.937z" fill="#f2ab84" stroke="#f2ab84"/><path d="M1673.578-116.524l66.567 209.894 117.167-215.827z" fill="#efa782" stroke="#efa782"/><path d="M1857.312-122.458l-117.167 215.827 175.113 30.028z" fill="#eba37b" stroke="#eba37b"/><path d="M1857.312-122.458l57.946 245.855 88.885-28.073z" fill="#e2a07b" stroke="#e2a07b"/><path d="M1857.312-122.458l146.831 217.782 52.402-217.549z" fill="#dd9e81" stroke="#dd9e81"/><path d="M1857.312-122.458l199.233.234 558.475-10.088z" fill="#c89782" stroke="#c89782"/><path d="M2056.546-122.224l-52.402 217.549 141.683-57.982z" fill="#d39b81" stroke="#d39b81"/><path d="M2056.546-122.224l89.281 159.567 37.182-73.176z" fill="#cd9981" stroke="#cd9981"/><path d="M2056.546-122.224l126.463 86.391 166.017-77.784z" fill="#c69682" stroke="#c69682"/><path d="M2056.546-122.224l292.48 8.607 265.995-18.694z" fill="#b69182" stroke="#b69182"/><path d="M2183.009-35.834l-37.182 73.176 152.806 36.271z" fill="#c4957e" stroke="#c4957e"/><path d="M2183.009-35.834l115.624 109.448 50.392-187.231z" fill="#bd9382" stroke="#bd9382"/><path d="M2349.026-113.618l-50.392 187.231 118.931-160.244z" fill="#b59082" stroke="#b59082"/><path d="M2349.026-113.618l68.539 26.987 197.456-45.682z" fill="#aa8c83" stroke="#aa8c83"/><path d="M2417.565-86.63l-118.931 160.244 143.926 27.065z" fill="#b28f7e" stroke="#b28f7e"/><path d="M2417.565-86.63l24.995 187.309 217.209-84.912z" fill="#a58b82" stroke="#a58b82"/><path d="M2417.565-86.63l242.204 102.397-44.748-148.079z" fill="#9f8983" stroke="#9f8983"/><path d="M2615.021-132.312l44.748 148.079 73.33-42.622z" fill="#948584" stroke="#948584"/><path d="M2615.021-132.312l118.078 105.458 74.129 51.503z" fill="#8f8384" stroke="#8f8384"/><path d="M2733.099-26.854l-73.33 42.622 147.46 8.881z" fill="#8d8283" stroke="#8d8283"/><path d="M-56.089 68.283l-38.449 119.888 149.264-6.692z" fill="#fff5d9" stroke="#fff5d9"/><path d="M-56.089 68.283l110.814 113.196 41.712-68.722z" fill="#fff3d8" stroke="#fff3d8"/><path d="M96.437 112.757l-41.712 68.722 137.653-14.974z" fill="#ffefcc" stroke="#ffefcc"/><path d="M96.437 112.757l95.941 53.748-22.932-126.13z" fill="#ffeed1" stroke="#ffeed1"/><path d="M169.446 40.375l22.932 126.13 236.776-58.577z" fill="#feeac8" stroke="#feeac8"/><path d="M429.154 107.927l-236.776 58.577 239.983 111.234z" fill="#fee5b4" stroke="#fee5b4"/><path d="M429.154 107.927l3.207 169.812 87.513-106.119z" fill="#fee0ab" stroke="#fee0ab"/><path d="M429.154 107.927l90.72 63.693 14.217-60.918z" fill="#fedfb2" stroke="#fedfb2"/><path d="M534.091 110.702l-14.217 60.918 104.214 91.56z" fill="#fedba4" stroke="#fedba4"/><path d="M534.091 110.702l89.997 152.478 11.073-239.423z" fill="#fedaaa" stroke="#fedaaa"/><path d="M635.161 23.758l-11.073 239.423 174.183-43.277z" fill="#fed69d" stroke="#fed69d"/><path d="M635.161 23.758l163.111 196.145 46.089-141.909z" fill="#fed3a2" stroke="#fed3a2"/><path d="M844.361 77.994l-46.089 141.909 156.533-30.847z" fill="#fece92" stroke="#fece92"/><path d="M844.361 77.994l110.444 111.063-5.896-125.28z" fill="#fecc97" stroke="#fecc97"/><path d="M948.908 63.776l5.896 125.28 143.828 1.575z" fill="#fec88c" stroke="#fec88c"/><path d="M948.908 63.776l149.724 126.855 12.996-132.103z" fill="#fec690" stroke="#fec690"/><path d="M1111.629 58.529l-12.996 132.103 153.443-88.45z" fill="#fdc188" stroke="#fdc188"/><path d="M1252.076 102.182l-153.443 88.45 122.9 49.278z" fill="#fdbe7c" stroke="#fdbe7c"/><path d="M1252.076 102.182l-30.543 137.728 227.346-10.46z" fill="#fbb872" stroke="#fbb872"/><path d="M1252.076 102.182l196.803 127.268-30.189-142.839z" fill="#fab677" stroke="#fab677"/><path d="M1418.69 86.61l30.189 142.839 94.544-58.019z" fill="#f8b16f" stroke="#f8b16f"/><path d="M1418.69 86.61l124.733 84.82 15.733-155.999z" fill="#f7b179" stroke="#f7b179"/><path d="M1559.156 15.432l-15.733 155.999 157.027-1.063z" fill="#f4ac72" stroke="#f4ac72"/><path d="M1559.156 15.432l141.294 154.936 39.696-76.999z" fill="#f2aa75" stroke="#f2aa75"/><path d="M1740.146 93.369l-39.696 76.999 152.36 48.176z" fill="#eea467" stroke="#eea467"/><path d="M1740.146 93.369l112.665 125.174 62.448-95.147z" fill="#eba168" stroke="#eba168"/><path d="M1915.258 123.397l-62.448 95.147 166.783-22.635z" fill="#e29d63" stroke="#e29d63"/><path d="M1915.258 123.397l104.335 72.512-15.449-100.584z" fill="#dc9c6a" stroke="#dc9c6a"/><path d="M2004.144 95.324l15.449 100.584 126.234-158.566z" fill="#d4996f" stroke="#d4996f"/><path d="M2145.827 37.343l-126.234 158.566 176.225 31.514z" fill="#ce9668" stroke="#ce9668"/><path d="M2145.827 37.343l49.991 190.081 102.815-153.81z" fill="#c4946f" stroke="#c4946f"/><path d="M2298.633 73.614l-102.815 153.81 137.791-14.907z" fill="#bd9066" stroke="#bd9066"/><path d="M2298.633 73.614l34.976 138.902 108.95-111.837z" fill="#b48e6d" stroke="#b48e6d"/><path d="M2442.56 100.679l-108.95 111.837 157.998-15.845z" fill="#ae8b67" stroke="#ae8b67"/><path d="M2442.56 100.679l49.047 95.992 168.162-180.904z" fill="#a28872" stroke="#a28872"/><path d="M2659.769 15.767l-168.162 180.904 159.235 42.082z" fill="#9b846b" stroke="#9b846b"/><path d="M2659.769 15.767l-8.927 222.986 156.387-214.105z" fill="#908274" stroke="#908274"/><path d="M2807.229 24.648l-156.387 214.105 177.608-8.998z" fill="#8a7e69" stroke="#8a7e69"/><path d="M-94.538 188.171l-17.253 451.708 47.629-323.817z" fill="#ffe1b6" stroke="#ffe1b6"/><path d="M-94.538 188.171l30.377 127.891 118.887-134.583z" fill="#fff0cc" stroke="#fff0cc"/><path d="M54.726 181.479l-118.887 134.583 151.596 84.91z" fill="#ffe6ba" stroke="#ffe6ba"/><path d="M54.726 181.479l32.709 219.493 104.944-234.467z" fill="#ffe8bc" stroke="#ffe8bc"/><path d="M192.378 166.505l-104.944 234.467 104.806 32.035z" fill="#fda" stroke="#fda"/><path d="M192.378 166.505l-.138 266.502 173.652-9.484z" fill="#fed8a1" stroke="#fed8a1"/><path d="M192.378 166.505l173.515 257.017 66.468-145.783z" fill="#fedba3" stroke="#fedba3"/><path d="M432.361 277.739l-66.468 145.783 119.688-80.65z" fill="#fed091" stroke="#fed091"/><path d="M432.361 277.739l53.22 65.133 34.292-171.251z" fill="#fed79c" stroke="#fed79c"/><path d="M519.874 171.62l-34.292 171.251 138.507-79.691z" fill="#fed598" stroke="#fed598"/><path d="M624.088 263.181l-138.507 79.691 132.502 11.166z" fill="#fecc8b" stroke="#fecc8b"/><path d="M624.088 263.181l-6.005 90.857 177.262 52.113z" fill="#fec580" stroke="#fec580"/><path d="M624.088 263.181l171.257 142.97 2.926-186.248z" fill="#fec783" stroke="#fec783"/><path d="M798.271 219.903l-2.926 186.248 159.459-217.094z" fill="#fec580" stroke="#fec580"/><path d="M954.805 189.056l-159.459 217.094 230.28-15.112z" fill="#febc71" stroke="#febc71"/><path d="M954.805 189.056l70.821 201.982 73.007-200.407z" fill="#febe77" stroke="#febe77"/><path d="M1098.632 190.632l-73.007 200.407 156.395-45.866z" fill="#feb669" stroke="#feb669"/><path d="M1098.632 190.632l83.388 154.541 39.512-105.263z" fill="#fdb86f" stroke="#fdb86f"/><path d="M1221.532 239.91l-39.512 105.263 120.741 68.052z" fill="#fcac5e" stroke="#fcac5e"/><path d="M1221.532 239.91l81.228 173.315 80.459-35.157z" fill="#fba858" stroke="#fba858"/><path d="M1221.532 239.91l161.687 138.158 65.659-148.618z" fill="#faac60" stroke="#faac60"/><path d="M1448.879 229.45l-65.659 148.618 200.456-10.853z" fill="#f8a253" stroke="#f8a253"/><path d="M1448.879 229.45l134.796 137.765-40.252-195.784z" fill="#f6a65d" stroke="#f6a65d"/><path d="M1543.423 171.431l40.252 195.784 93.39-17.212z" fill="#f49f54" stroke="#f49f54"/><path d="M1543.423 171.431l133.642 178.572 23.385-179.635z" fill="#f2a45e" stroke="#f2a45e"/><path d="M1700.45 170.368l-23.385 179.635 140.912-14.591z" fill="#ef9a53" stroke="#ef9a53"/><path d="M1700.45 170.368l117.527 165.044 34.833-116.868z" fill="#ee9c59" stroke="#ee9c59"/><path d="M1852.81 218.544l-34.833 116.868 153.792 49.236z" fill="#e7914c" stroke="#e7914c"/><path d="M1852.81 218.544l118.958 166.104 47.824-188.739z" fill="#e09354" stroke="#e09354"/><path d="M2019.593 195.909l-47.824 188.739 186.405-37.174z" fill="#d58b4d" stroke="#d58b4d"/><path d="M2019.593 195.909l138.581 151.565 37.644-120.05z" fill="#cd8e56" stroke="#cd8e56"/><path d="M2195.818 227.423l-37.644 120.05 111.788 16.639z" fill="#c4854d" stroke="#c4854d"/><path d="M2195.818 227.423l74.143 136.69 63.648-151.597z" fill="#be8855" stroke="#be8855"/><path d="M2333.609 212.516l-63.648 151.597 220.027 45.369z" fill="#b47d4b" stroke="#b47d4b"/><path d="M2333.609 212.516l156.379 196.966 1.619-212.811z" fill="#ac8155" stroke="#ac8155"/><path d="M2491.607 196.671l-1.619 212.811 160.854-170.729z" fill="#a17c54" stroke="#a17c54"/><path d="M2650.842 238.753l-160.854 170.729 99.755 21.469z" fill="#9d7246" stroke="#9d7246"/><path d="M2650.842 238.753l-61.099 192.198 161.153-109.544z" fill="#94724c" stroke="#94724c"/><path d="M2650.842 238.753l100.054 82.654 77.554-91.653z" fill="#8c7658" stroke="#8c7658"/><path d="M2828.45 229.755l-77.554 91.653 25.358 193.084z" fill="#886b48" stroke="#886b48"/><path d="M2828.45 229.755l-52.196 284.736 22.348 311.725z" fill="#86592f" stroke="#86592f"/><path d="M-64.161 316.061l-47.629 323.817 59.359-172.615z" fill="#ffd7a6" stroke="#ffd7a6"/><path d="M-64.161 316.061l11.73 151.202 139.866-66.292z" fill="#ffddad" stroke="#ffddad"/><path d="M87.434 400.971l-139.866 66.292 165.608 82.188z" fill="#ffd29d" stroke="#ffd29d"/><path d="M87.434 400.971l25.742 148.48 79.064-116.445z" fill="#ffd198" stroke="#ffd198"/><path d="M192.241 433.006l-79.064 116.445 155.386 25.429z" fill="#fec88a" stroke="#fec88a"/><path d="M192.241 433.006l76.322 141.874 68.181-108.711z" fill="#fec888" stroke="#fec888"/><path d="M192.241 433.006l144.503 33.163 29.149-42.647z" fill="#fecc8d" stroke="#fecc8d"/><path d="M365.893 423.522l-29.149 42.647 241.074 20.039z" fill="#fec480" stroke="#fec480"/><path d="M365.893 423.522l211.925 62.686-92.236-143.336z" fill="#fec782" stroke="#fec782"/><path d="M485.581 342.872l92.236 143.336 40.265-132.17z" fill="#fec580" stroke="#fec580"/><path d="M618.083 354.038l-40.265 132.17 109.183 60.63z" fill="#febb71" stroke="#febb71"/><path d="M618.083 354.038l68.918 192.8 108.345-140.687z" fill="#feba6f" stroke="#feba6f"/><path d="M795.345 406.151l-108.345 140.687 188.466-39.317zM795.345 406.151l80.121 101.37 150.159-116.483z" fill="#feb162" stroke="#feb162"/><path d="M1025.625 391.038l-150.159 116.483 52.036 32.989z" fill="#feab59" stroke="#feab59"/><path d="M1025.625 391.038l-98.123 149.472 157.547-73.372z" fill="#fea956" stroke="#fea956"/><path d="M1025.625 391.038l59.424 76.1 96.971-121.965z" fill="#feac5a" stroke="#feac5a"/><path d="M1182.02 345.173l-96.971 121.965 217.711-53.913z" fill="#fda754" stroke="#fda754"/><path d="M1302.761 413.225l-217.711 53.913 182.035 102.338z" fill="#fc9d47" stroke="#fc9d47"/><path d="M1302.761 413.225l-35.677 156.251 121.657 48.292z" fill="#fb933a" stroke="#fb933a"/><path d="M1302.761 413.225l85.98 204.543 93.086-147.846z" fill="#f9933b" stroke="#f9933b"/><path d="M1302.761 413.225l179.066 56.697-98.608-91.854z" fill="#f99b47" stroke="#f99b47"/><path d="M1383.219 378.068l98.608 91.854 101.848-102.707z" fill="#f89845" stroke="#f89845"/><path d="M1583.675 367.215l-101.848 102.707 89.711 25.743z" fill="#f6923d" stroke="#f6923d"/><path d="M1583.675 367.215l-12.137 128.449 105.527-145.661z" fill="#f39342" stroke="#f39342"/><path d="M1677.065 350.003l-105.527 145.661 131.334 87.535z" fill="#f28a36" stroke="#f28a36"/><path d="M1677.065 350.003l25.807 233.196 115.105-247.787z" fill="#ef8c3c" stroke="#ef8c3c"/><path d="M1817.977 335.412l-115.105 247.787 199.167-11.682z" fill="#ed812f" stroke="#ed812f"/><path d="M1817.977 335.412l84.062 236.105 69.73-186.869z" fill="#e58439" stroke="#e58439"/><path d="M1971.769 384.648l-69.73 186.869 176.167-42.656z" fill="#dc7a2f" stroke="#dc7a2f"/><path d="M1971.769 384.648l106.437 144.213 79.968-181.387z" fill="#d37e3b" stroke="#d37e3b"/><path d="M2158.174 347.474l-79.968 181.387 99.64 49.017z" fill="#cc7532" stroke="#cc7532"/><path d="M2158.174 347.474l19.673 230.404 92.115-213.765z" fill="#c5783a" stroke="#c5783a"/><path d="M2269.962 364.113l-92.115 213.765 149.702-40.128z" fill="#bf7031" stroke="#bf7031"/><path d="M2269.962 364.113l57.587 173.637 162.44-128.267z" fill="#b47239" stroke="#b47239"/><path d="M2489.988 409.482l-162.44 128.267 98.95 35.731z" fill="#af6930" stroke="#af6930"/><path d="M2489.988 409.482l-63.49 163.999 163.245-142.53z" fill="#a56935" stroke="#a56935"/><path d="M2589.743 430.951l-163.245 142.53 203.411 43.467z" fill="#a0602b" stroke="#a0602b"/><path d="M2589.743 430.951l40.166 185.996 48.593-67.204z" fill="#985e2d" stroke="#985e2d"/><path d="M2589.743 430.951l88.759 118.793 97.752-35.253z" fill="#926032" stroke="#926032"/><path d="M2589.743 430.951l186.511 83.54-25.358-193.084z" fill="#90673d" stroke="#90673d"/><path d="M-52.432 467.264l-59.359 172.615 178.824 22.548z" fill="#ffca93" stroke="#ffca93"/><path d="M-52.432 467.264l119.465 195.163 46.143-112.975z" fill="#ffca90" stroke="#ffca90"/><path d="M113.176 549.451l-46.143 112.975 210.467-41.704z" fill="#ffc082" stroke="#ffc082"/><path d="M113.176 549.451l164.324 71.271-8.938-45.843z" fill="#fec17f" stroke="#fec17f"/><path d="M268.562 574.88l8.938 45.843 59.244-154.554z" fill="#fec17d" stroke="#fec17d"/><path d="M336.744 466.169l-59.244 154.554 200.085 65.452z" fill="#feba72" stroke="#feba72"/><path d="M336.744 466.169l140.842 220.006 100.233-199.968z" fill="#feba70" stroke="#feba70"/><path d="M577.818 486.208l-100.233 199.968 160.36-58.326z" fill="#feaf63" stroke="#feaf63"/><path d="M577.818 486.208l60.128 141.642 49.055-81.011z" fill="#feb163" stroke="#feb163"/><path d="M687.001 546.838l-49.055 81.011 194.291 6.698z" fill="#fea857" stroke="#fea857"/><path d="M687.001 546.838l145.236 87.71 43.23-127.027z" fill="#fea955" stroke="#fea955"/><path d="M875.466 507.521l-43.23 127.027 95.266-94.038z" fill="#fea551" stroke="#fea551"/><path d="M927.502 540.51l-95.266 94.038 154.866 15.523z" fill="#fe9e49" stroke="#fe9e49"/><path d="M927.502 540.51l59.6 109.561 97.947-182.933z" fill="#fea14a" stroke="#fea14a"/><path d="M1085.049 467.138l-97.947 182.933 135.591-3.458z" fill="#fe9a42" stroke="#fe9a42"/><path d="M1085.049 467.138l37.644 179.475 144.39-77.137z" fill="#fd983f" stroke="#fd983f"/><path d="M1267.084 569.476l-144.39 77.137 182.192-.708z" fill="#fc8e35" stroke="#fc8e35"/><path d="M1267.084 569.476l37.802 76.429 83.855-28.137z" fill="#fb8b31" stroke="#fb8b31"/><path d="M1481.827 469.921l-93.086 147.846 182.797-122.104z" fill="#f88c33" stroke="#f88c33"/><path d="M1571.538 495.664l-182.797 122.104 169.22 89.831z" fill="#f78228" stroke="#f78228"/><path d="M1571.538 495.664l-13.577 211.935 144.911-124.4z" fill="#f37f27" stroke="#f37f27"/><path d="M1702.872 583.199l-144.911 124.4 167.143-53.083z" fill="#f27620" stroke="#f27620"/><path d="M1702.872 583.199l22.232 71.316 108.903-5.506z" fill="#ef7520" stroke="#ef7520"/><path d="M1702.872 583.199l131.135 65.811 68.032-77.493z" fill="#ed7521" stroke="#ed7521"/><path d="M1902.039 571.517l-68.032 77.493 207.743 83.687z" fill="#e26b1d" stroke="#e26b1d"/><path d="M1902.039 571.517l139.711 161.18 36.456-203.836z" fill="#d96d21" stroke="#d96d21"/><path d="M2078.206 528.861l-36.456 203.836 89.941-27.35z" fill="#d1651d" stroke="#d1651d"/><path d="M2078.206 528.861l53.485 176.486 46.156-127.469z" fill="#cd6922" stroke="#cd6922"/><path d="M2177.846 577.878l-46.156 127.469 191.688-9.707z" fill="#c4601d" stroke="#c4601d"/><path d="M2177.846 577.878l145.533 117.762 4.17-157.89z" fill="#bd6423" stroke="#bd6423"/><path d="M2327.549 537.75l-4.17 157.89 103.12-122.159z" fill="#b46123" stroke="#b46123"/><path d="M2426.498 573.481l-103.12 122.159 122.735 34.832z" fill="#b0581d" stroke="#b0581d"/><path d="M2426.498 573.481l19.615 156.991 183.795-113.524z" fill="#a55720" stroke="#a55720"/><path d="M2678.502 549.744l-48.593 67.204 149.961 105.709z" fill="#915122" stroke="#915122"/><path d="M2678.502 549.744l101.368 172.913-3.616-208.166z" fill="#8c5326" stroke="#8c5326"/><path d="M2776.254 514.491l3.616 208.166 18.731 103.559z" fill="#88471d" stroke="#88471d"/><path d="M-111.791 639.879l-20.607 625.074 69.293-381.165z" fill="#ffa789" stroke="#ffa789"/><path d="M-111.791 639.879l48.686 243.909 130.138-221.361z" fill="#ffba86" stroke="#ffba86"/><path d="M67.033 662.427l-130.138 221.361 114.925-14.864z" fill="#ffb07f" stroke="#ffb07f"/><path d="M67.033 662.427l-15.213 206.497 114.634-28.61z" fill="#ffae79" stroke="#ffae79"/><path d="M67.033 662.427l99.421 177.887 111.046-219.591z" fill="#ffb477" stroke="#ffb477"/><path d="M277.5 620.723l-111.046 219.591 185.417-6.663z" fill="#feaa6b" stroke="#feaa6b"/><path d="M277.5 620.723l74.371 212.928 33.442-116.743z" fill="#feab68" stroke="#feab68"/><path d="M277.5 620.723l107.814 96.185 92.272-30.733z" fill="#feb06a" stroke="#feb06a"/><path d="M385.314 716.908l-33.442 116.743 203.074-3.276z" fill="#fea05e" stroke="#fea05e"/><path d="M385.314 716.908l169.632 113.467-77.361-144.2z" fill="#fea35c" stroke="#fea35c"/><path d="M477.585 686.175l77.361 144.2 83-202.525z" fill="#fea258" stroke="#fea258"/><path d="M637.945 627.849l-83 202.525 66.894 1.704z" fill="#fe9b51" stroke="#fe9b51"/><path d="M637.945 627.849l-16.106 204.229 210.397-197.531z" fill="#fe9e4f" stroke="#fe9e4f"/><path d="M832.236 634.548l-210.397 197.531 197.029 37.895z" fill="#fe9246" stroke="#fe9246"/><path d="M832.236 634.548l-13.368 235.426 168.234-219.903z" fill="#fe9441" stroke="#fe9441"/><path d="M987.102 650.071l-168.234 219.903 194.267-7.979z" fill="#fe883a" stroke="#fe883a"/><path d="M987.102 650.071l26.033 211.923 109.558-215.382z" fill="#fe8c37" stroke="#fe8c37"/><path d="M1122.693 646.613l-109.558 215.382 148.622 3.251z" fill="#fe8230" stroke="#fe8230"/><path d="M1122.693 646.613l39.064 218.633 143.128-219.341z" fill="#fd842e" stroke="#fd842e"/><path d="M1304.886 645.905l-143.128 219.341 172.555-52.828z" fill="#fb7b26" stroke="#fb7b26"/><path d="M1304.886 645.905l29.426 166.513 54.429-194.65z" fill="#fa8128" stroke="#fa8128"/><path d="M1388.741 617.768l-54.429 194.65 223.649-104.819z" fill="#f97a21" stroke="#f97a21"/><path d="M1557.961 707.599l-223.649 104.819 114.653 55.393z" fill="#f9701c" stroke="#f9701c"/><path d="M1557.961 707.599l-108.995 160.212 137.647-11.499z" fill="#f66b1a" stroke="#f66b1a"/><path d="M1557.961 707.599l28.651 148.713 144.899-66.137z" fill="#f36917" stroke="#f36917"/><path d="M1557.961 707.599l173.551 82.576-6.408-135.659z" fill="#f16e1a" stroke="#f16e1a"/><path d="M1725.104 654.515l6.408 135.659 102.495-141.164z" fill="#ee6c19" stroke="#ee6c19"/><path d="M1834.007 649.01l-102.495 141.164 134.472 50.408z" fill="#ed6313" stroke="#ed6313"/><path d="M1834.007 649.01l31.978 191.572 175.765-107.886z" fill="#e36114" stroke="#e36114"/><path d="M2041.75 732.696l-175.765 107.886 114.691 33.353z" fill="#de5813" stroke="#de5813"/><path d="M2041.75 732.696l-61.074 141.239 146.789-84.086z" fill="#d55613" stroke="#d55613"/><path d="M2041.75 732.696l85.715 57.153 4.226-84.503z" fill="#d05a15" stroke="#d05a15"/><path d="M2131.691 705.347l-4.226 84.503 195.914-94.21z" fill="#c65816" stroke="#c65816"/><path d="M2323.379 695.639l-195.914 94.21 152.804 129.308z" fill="#c14f14" stroke="#c14f14"/><path d="M2323.379 695.639l-43.11 223.518 98.427-146.094z" fill="#b84c14" stroke="#b84c14"/><path d="M2323.379 695.639l55.317 77.425 67.418-42.592z" fill="#b25117" stroke="#b25117"/><path d="M2446.114 730.472l-67.418 42.592 60.836 42.563z" fill="#ae4b15" stroke="#ae4b15"/><path d="M2446.114 730.472l-6.582 85.155 156.391 56.756z" fill="#a64515" stroke="#a64515"/><path d="M2446.114 730.472l149.81 141.911 33.986-255.435z" fill="#a04a17" stroke="#a04a17"/><path d="M2629.909 616.948l-33.986 255.435 183.947-149.726z" fill="#944618" stroke="#944618"/><path d="M2779.87 722.657l-183.947 149.726 202.678-46.167z" fill="#8e3c16" stroke="#8e3c16"/><path d="M-63.105 883.788l-69.293 381.165 58.078-183.718z" fill="#e09a88" stroke="#e09a88"/><path d="M-63.105 883.788l-11.215 197.447 39.314-80.695z" fill="#f5a085" stroke="#f5a085"/><path d="M-63.105 883.788l28.099 116.752 86.826-131.616z" fill="#ffa582" stroke="#ffa582"/><path d="M51.821 868.924l-86.826 131.616 108.639-35.458z" fill="#ffa17e" stroke="#ffa17e"/><path d="M51.821 868.924l21.813 96.157 92.821-124.767z" fill="#ffa379" stroke="#ffa379"/><path d="M166.455 840.314l-92.821 124.767 207.598-14.458z" fill="#ff9d72" stroke="#ff9d72"/><path d="M166.455 840.314l114.777 110.31 70.64-116.973z" fill="#fe9e6b" stroke="#fe9e6b"/><path d="M351.872 833.651l-70.64 116.973 128.343 4.548z" fill="#fe9764" stroke="#fe9764"/><path d="M351.872 833.651l57.703 121.52 62.317-3.271z" fill="#fe945f" stroke="#fe945f"/><path d="M351.872 833.651l120.02 118.249 83.054-121.525z" fill="#fe965c" stroke="#fe965c"/><path d="M554.946 830.375l-83.054 121.525 149.948-119.821z" fill="#fe9255" stroke="#fe9255"/><path d="M621.84 832.079l-149.948 119.821 248.023 65.82z" fill="#fe8951" stroke="#fe8951"/><path d="M621.84 832.079l98.075 185.642 98.954-147.747z" fill="#fe8748" stroke="#fe8748"/><path d="M818.869 869.974l-98.954 147.747 163.054-13.418z" fill="#fa7d42" stroke="#fa7d42"/><path d="M818.869 869.974l64.1 134.329 127.097-67.191z" fill="#fe7b3c" stroke="#fe7b3c"/><path d="M818.869 869.974l191.197 67.138 3.07-75.117z" fill="#fe7e39" stroke="#fe7e39"/><path d="M1013.136 861.994l-3.07 75.117 90.662 33.375z" fill="#fe7633" stroke="#fe7633"/><path d="M1013.136 861.994l87.592 108.493 61.03-105.242z" fill="#fe7630" stroke="#fe7630"/><path d="M1161.758 865.246l-61.03 105.242 148.139 61.643z" fill="#fb6d2c" stroke="#fb6d2c"/><path d="M1161.758 865.246l87.109 166.885 85.445-219.713z" fill="#fc6f27" stroke="#fc6f27"/><path d="M1334.312 812.417l-85.445 219.713 200.099-164.32z" fill="#fa6a22" stroke="#fa6a22"/><path d="M1448.966 867.81l-200.099 164.32 222.079-114.701z" fill="#f9641f" stroke="#f9641f"/><path d="M1448.966 867.81l21.98 49.62 115.667-61.119z" fill="#f7641a" stroke="#f7641a"/><path d="M1586.613 856.311l-115.667 61.119 73.506 70.59z" fill="#f65f19" stroke="#f65f19"/><path d="M1586.613 856.311l-42.161 131.709 121.27-69.869z" fill="#f45c18" stroke="#f45c18"/><path d="M1586.613 856.311l79.109 61.84 65.79-127.977z" fill="#f26016" stroke="#f26016"/><path d="M1731.512 790.174l-65.79 127.977 200.263-77.569z" fill="#ef5d14" stroke="#ef5d14"/><path d="M1865.984 840.582l-200.263 77.569 252.182 72.329z" fill="#ed5313" stroke="#ed5313"/><path d="M1865.984 840.582l51.92 149.898 62.771-116.545z" fill="#e25013" stroke="#e25013"/><path d="M1980.675 873.935l-62.771 116.545 157.009-59.307z" fill="#db4b13" stroke="#db4b13"/><path d="M1980.675 873.935l94.237 57.238 52.552-141.324z" fill="#d44f13" stroke="#d44f13"/><path d="M2127.464 789.849l-52.552 141.324 205.356-12.016z" fill="#c94914" stroke="#c94914"/><path d="M2378.696 773.064l-98.427 146.094 159.264-103.531z" fill="#b44714" stroke="#b44714"/><path d="M2439.532 815.627l-159.264 103.531 250.607 94.183z" fill="#ae3d15" stroke="#ae3d15"/><path d="M2439.532 815.627l91.344 197.714 65.047-140.958z" fill="#a33a15" stroke="#a33a15"/><path d="M2595.923 872.383l-65.047 140.958 41.55 4.768z" fill="#993215" stroke="#993215"/><path d="M2595.923 872.383l-23.497 145.725 213.181-20.629z" fill="#922f16" stroke="#922f16"/><path d="M2595.923 872.383l189.683 125.097 12.995-171.264z" fill="#8e3316" stroke="#8e3316"/><path d="M-35.006 1000.539l-39.314 80.695 112.513 58.243z" fill="#e19883" stroke="#e19883"/><path d="M-35.006 1000.539l73.2 138.938 35.439-174.396z" fill="#ea997f" stroke="#ea997f"/><path d="M73.633 965.081l-35.439 174.396 239.038-59.665z" fill="#e49376" stroke="#e49376"/><path d="M73.633 965.081l203.599 114.731 4-129.189z" fill="#f2956f" stroke="#f2956f"/><path d="M281.232 950.623l-4 129.189 132.343-124.641z" fill="#f39066" stroke="#f39066"/><path d="M409.575 955.171l-132.343 124.641 117.798 55.813z" fill="#e48963" stroke="#e48963"/><path d="M409.575 955.171l-14.544 180.454 120.603-46.473z" fill="#e3865d" stroke="#e3865d"/><path d="M409.575 955.171l106.059 133.981-43.742-137.252z" fill="#f28a5b" stroke="#f28a5b"/><path d="M471.891 951.9l43.742 137.252 204.281-71.432z" fill="#ed8353" stroke="#ed8353"/><path d="M719.915 1017.721l-204.281 71.432 195.879 12.296z" fill="#e17b4d" stroke="#e17b4d"/><path d="M719.915 1017.721l-8.403 83.728 79.053 52.891z" fill="#dc7547" stroke="#dc7547"/><path d="M719.915 1017.721l70.65 136.619 92.404-150.037z" fill="#e47543" stroke="#e47543"/><path d="M882.969 1004.303l-92.404 150.037 142.914 8.95z" fill="#d86e3e" stroke="#d86e3e"/><path d="M882.969 1004.303l50.51 158.987 134.942-89.728z" fill="#df6c38" stroke="#df6c38"/><path d="M882.969 1004.303l185.452 69.259-58.355-136.45z" fill="#f07237" stroke="#f07237"/><path d="M1010.066 937.112l58.355 136.45 32.307-103.074z" fill="#f36f32" stroke="#f36f32"/><path d="M1100.728 970.487l-32.307 103.074 180.447-41.431z" fill="#eb692d" stroke="#eb692d"/><path d="M1248.867 1032.131l-180.447 41.431 207.716 38.32z" fill="#df622a" stroke="#df622a"/><path d="M1248.867 1032.131l27.27 79.751 194.809-194.451z" fill="#e96023" stroke="#e96023"/><path d="M1470.946 917.43l-194.809 194.451 193.161 62.987z" fill="#dd581e" stroke="#dd581e"/><path d="M1470.946 917.43l-1.648 257.438 75.154-186.848z" fill="#e4571a" stroke="#e4571a"/><path d="M1544.452 988.02l-75.154 186.848 73.438-37.847z" fill="#d2501a" stroke="#d2501a"/><path d="M1544.452 988.02l-1.716 149.001 127.429-17.947z" fill="#d54e18" stroke="#d54e18"/><path d="M1544.452 988.02l125.713 131.054-4.443-200.923z" fill="#e45317" stroke="#e45317"/><path d="M1665.722 918.151l4.443 200.923 247.739-128.594z" fill="#e04d14" stroke="#e04d14"/><path d="M1917.904 990.481l-247.739 128.594 259.938-21.455z" fill="#ce4412" stroke="#ce4412"/><path d="M1917.904 990.481l12.198 107.139 63.164.933z" fill="#c44113" stroke="#c44113"/><path d="M1917.904 990.481l75.362 108.072 81.646-167.38z" fill="#cc4413" stroke="#cc4413"/><path d="M2074.913 931.173l-81.646 167.38 149.809-32.92z" fill="#bf3f13" stroke="#bf3f13"/><path d="M2074.913 931.173l68.163 134.459 71.243-63.974z" fill="#bf3f14" stroke="#bf3f14"/><path d="M2074.913 931.173l139.406 70.486 65.95-82.501z" fill="#c54114" stroke="#c54114"/><path d="M2214.319 1001.659l-71.243 63.974 153.061 14.039z" fill="#ab3814" stroke="#ab3814"/><path d="M2214.319 1001.659l81.818 78.013-15.868-160.514z" fill="#b13a14" stroke="#b13a14"/><path d="M2280.268 919.158l15.868 160.514 119.951 30.526z" fill="#a23514" stroke="#a23514"/><path d="M2280.268 919.158l135.819 191.04 114.788-96.857z" fill="#9f3415" stroke="#9f3415"/><path d="M2530.876 1013.341l-114.788 96.857 174.314 68.742z" fill="#802915" stroke="#802915"/><path d="M2530.876 1013.341l59.525 165.599-17.975-160.831z" fill="#822915" stroke="#822915"/><path d="M2572.426 1018.108l17.975 160.831 142.845-24.607z" fill="#702316" stroke="#702316"/><path d="M2572.426 1018.108l160.821 136.224 52.36-156.853z" fill="#772616" stroke="#772616"/><path d="M2785.607 997.48l-52.36 156.853-6.57 72.568z" fill="#611d16" stroke="#611d16"/><path d="M2785.607 997.48l-58.93 229.421 2.729 222.457z" fill="#4b1516" stroke="#4b1516"/><path d="M-74.32 1081.234l-58.078 183.718 170.591-125.475z" fill="#cc9185" stroke="#cc9185"/><path d="M38.194 1139.477l-170.591 125.475 185.888 69.262z" fill="#b98882" stroke="#b98882"/><path d="M38.194 1139.477l15.297 194.737 134.93-67.125z" fill="#b88479" stroke="#b88479"/><path d="M38.194 1139.477l150.227 127.612 88.811-187.277z" fill="#cc8873" stroke="#cc8873"/><path d="M277.232 1079.812l-88.811 187.277 206.609-131.464z" fill="#cc8369" stroke="#cc8369"/><path d="M395.03 1135.625l-206.609 131.464 217.365 6.286z" fill="#bd7c66" stroke="#bd7c66"/><path d="M395.03 1135.625l10.756 137.75 73.057-53.098z" fill="#c1795e" stroke="#c1795e"/><path d="M395.03 1135.625l83.813 84.652 36.791-131.124z" fill="#cf7d5b" stroke="#cf7d5b"/><path d="M515.633 1089.152l-36.791 131.124 175 79.04z" fill="#c27455" stroke="#c27455"/><path d="M515.633 1089.152l138.209 210.165 57.669-197.869z" fill="#cb744f" stroke="#cb744f"/><path d="M711.512 1101.448l-57.669 197.869 136.722-144.978z" fill="#c66e48" stroke="#c66e48"/><path d="M790.565 1154.34l-136.722 144.978 155.678-22.03z" fill="#b96746" stroke="#b96746"/><path d="M790.565 1154.34l18.955 122.947 123.958-113.997z" fill="#c36740" stroke="#c36740"/><path d="M933.479 1163.29l-123.958 113.997 208.012-42.467z" fill="#bd613b" stroke="#bd613b"/><path d="M933.479 1163.29l84.054 71.53 50.888-161.258z" fill="#cd6336" stroke="#cd6336"/><path d="M1068.421 1073.562l-50.888 161.258 74.782 11.557z" fill="#c65e32" stroke="#c65e32"/><path d="M1068.421 1073.562l23.894 172.815 183.822-134.495z" fill="#cf5e2d" stroke="#cf5e2d"/><path d="M1276.137 1111.881l-183.822 134.495 207.907-20.259z" fill="#c25629" stroke="#c25629"/><path d="M1276.137 1111.881l24.085 114.236 169.077-51.249z" fill="#c65222" stroke="#c65222"/><path d="M1469.298 1174.868l-169.077 51.249 177.294 12.153z" fill="#bb4b1e" stroke="#bb4b1e"/><path d="M1469.298 1174.868l8.217 63.402 65.221-101.249z" fill="#c0491a" stroke="#c0491a"/><path d="M1542.736 1137.021l-65.221 101.249 104.08 48.581z" fill="#b6451a" stroke="#b6451a"/><path d="M1542.736 1137.021l38.859 149.83 107.73-64.289z" fill="#b54218" stroke="#b54218"/><path d="M1542.736 1137.021l146.589 85.541-19.16-103.488z" fill="#c14617" stroke="#c14617"/><path d="M1670.165 1119.074l19.16 103.488 164.101 8.772z" fill="#b63e14" stroke="#b63e14"/><path d="M1670.165 1119.074l183.26 112.26 76.677-133.715z" fill="#bd3e13" stroke="#bd3e13"/><path d="M1930.102 1097.62l-76.677 133.715 139.841-132.781z" fill="#b43b13" stroke="#b43b13"/><path d="M1993.266 1098.553l-139.841 132.781 135.341 90.795z" fill="#a03313" stroke="#a03313"/><path d="M1993.266 1098.553l-4.5 223.576 154.309-256.497z" fill="#a33413" stroke="#a33413"/><path d="M2143.075 1065.633l-154.309 256.497 237.058-13.078z" fill="#8b2c13" stroke="#8b2c13"/><path d="M2143.075 1065.633l82.749 243.419 70.312-229.38z" fill="#932f14" stroke="#932f14"/><path d="M2296.137 1079.672l-70.312 229.38 131.079-14.07z" fill="#792614" stroke="#792614"/><path d="M2296.137 1079.672l60.767 215.31 59.184-184.784z" fill="#822914" stroke="#822914"/><path d="M2416.088 1110.198l-59.184 184.784 86.826 31.87z" fill="#6a2015" stroke="#6a2015"/><path d="M2416.088 1110.198l27.642 216.654 123.883-94.867z" fill="#681f15" stroke="#681f15"/><path d="M2416.088 1110.198l151.526 121.787 22.788-53.045z" fill="#6e2215" stroke="#6e2215"/><path d="M2590.401 1178.939l-22.788 53.045 159.064-5.083z" fill="#5a1a16" stroke="#5a1a16"/><path d="M2590.401 1178.939l136.276 47.962 6.57-72.568z" fill="#5a1b16" stroke="#5a1b16"/><path d="M-132.398 1264.953l9.8 160.241 176.088-90.98z" fill="#a28286" stroke="#a28286"/><path d="M53.491 1334.214l-176.088 90.98 234.236 14.965z" fill="#957a80" stroke="#957a80"/><path d="M53.491 1334.214l58.148 105.945 76.782-173.07z" fill="#a17a77" stroke="#a17a77"/><path d="M188.421 1267.089l-76.782 173.07 152.769-46.028z" fill="#9c7571" stroke="#9c7571"/><path d="M188.421 1267.089l75.987 127.041 141.379-120.755z" fill="#a97669" stroke="#a97669"/><path d="M405.786 1273.375l-141.379 120.755 55.351 25.118z" fill="#9d7066" stroke="#9d7066"/><path d="M405.786 1273.375l-86.028 145.873 198.822-45.894z" fill="#9f6d5f" stroke="#9f6d5f"/><path d="M405.786 1273.375l112.794 99.979-39.737-153.077z" fill="#ae715b" stroke="#ae715b"/><path d="M478.843 1220.277l39.737 153.077 135.263-74.037z" fill="#ac6c55" stroke="#ac6c55"/><path d="M653.843 1299.317l-135.263 74.037 110.69 98.89z" fill="#996251" stroke="#996251"/><path d="M653.843 1299.317l-24.572 172.927 191.814-65.848z" fill="#965d4a" stroke="#965d4a"/><path d="M653.843 1299.317l167.242 107.078-11.564-129.109z" fill="#a55f45" stroke="#a55f45"/><path d="M809.52 1277.287l11.564 129.109 154.053 19.562z" fill="#9b573e" stroke="#9b573e"/><path d="M809.52 1277.287l165.618 148.67 42.394-191.137z" fill="#a9593a" stroke="#a9593a"/><path d="M1017.533 1234.82l-42.394 191.137 117.176-179.581z" fill="#ab5634" stroke="#ab5634"/><path d="M1092.314 1246.377l-117.176 179.581 112.156 37.689z" fill="#994e33" stroke="#994e33"/><path d="M1092.314 1246.377l-5.02 217.269 143.21-94.954z" fill="#9d4c2e" stroke="#9d4c2e"/><path d="M1092.314 1246.377l138.19 122.316 69.717-142.575z" fill="#ae4f2a" stroke="#ae4f2a"/><path d="M1300.221 1226.117l-69.717 142.575 151.887 116.152z" fill="#9a4424" stroke="#9a4424"/><path d="M1300.221 1226.117l82.169 258.727 95.124-246.574z" fill="#a34320" stroke="#a34320"/><path d="M1477.515 1238.27l-95.124 246.574 173.454-33.045z" fill="#90381b" stroke="#90381b"/><path d="M1477.515 1238.27l78.33 213.529 25.75-164.948z" fill="#9d3b19" stroke="#9d3b19"/><path d="M1581.595 1286.851l-25.75 164.948 130.994-32.206z" fill="#8d3318" stroke="#8d3318"/><path d="M1581.595 1286.851l105.244 132.742 2.486-197.031z" fill="#9d3717" stroke="#9d3717"/><path d="M1689.324 1222.562l-2.486 197.031 166.586-188.259z" fill="#9f3514" stroke="#9f3514"/><path d="M1853.425 1231.334l-166.586 188.259 150.23 6.839z" fill="#8d2d13" stroke="#8d2d13"/><path d="M1853.425 1231.334l-16.357 195.097 151.698-104.302z" fill="#8c2b13" stroke="#8c2b13"/><path d="M1988.766 1322.129l-151.698 104.302 165.456-51.838z" fill="#7c2613" stroke="#7c2613"/><path d="M1988.766 1322.129l13.759 52.465 223.299-65.542z" fill="#782413" stroke="#782413"/><path d="M2225.824 1309.052l-223.299 65.542 213.917 7.511z" fill="#6b1f14" stroke="#6b1f14"/><path d="M2225.824 1309.052l-9.382 73.053 140.461-87.123z" fill="#651e14" stroke="#651e14"/><path d="M2356.904 1294.981l-140.461 87.123 136.075 67.446z" fill="#561814" stroke="#561814"/><path d="M2356.904 1294.981l-4.386 154.569 91.212-122.699z" fill="#521715" stroke="#521715"/><path d="M2443.73 1326.852l-91.212 122.699 83.31-19.875z" fill="#441215" stroke="#441215"/><path d="M2443.73 1326.852l-7.903 102.824 175.456 19.561z" fill="#3b0f15" stroke="#3b0f15"/><path d="M2443.73 1326.852l167.553 122.385-43.67-217.252z" fill="#461315" stroke="#461315"/><path d="M2567.613 1231.985l43.67 217.252 115.394-222.336z" fill="#441216" stroke="#441216"/><path d="M2726.677 1226.901l-115.394 222.336 118.123.121z" fill="#2e0a16" stroke="#2e0a16"/><path d="M111.639 1440.159l517.632 32.085-309.512-52.996z" fill="#8a6964" stroke="#8a6964"/><path d="M111.639 1440.159l208.12-20.911-55.351-25.118z" fill="#906f6e" stroke="#906f6e"/><path d="M319.758 1419.248l309.512 52.996-110.69-98.89z" fill="#8f6459" stroke="#8f6459"/><path d="M629.271 1472.244l753.12 12.6-295.096-21.198z" fill="#834a34" stroke="#834a34"/><path d="M629.271 1472.244l458.024-8.598-112.156-37.689z" fill="#88503d" stroke="#88503d"/><path d="M629.271 1472.244l345.868-46.287-154.053-19.562z" fill="#8c5442" stroke="#8c5442"/><path d="M1087.294 1463.646l295.096 21.198-151.887-116.152z" fill="#894028" stroke="#894028"/><path d="M1382.391 1484.845l1347.015-35.486-118.123-.121z" fill="#491514" stroke="#491514"/><path d="M1382.391 1484.845l1228.892-35.608-258.765.314z" fill="#561a13" stroke="#561a13"/><path d="M1382.391 1484.845l970.127-35.294-515.449-23.119z" fill="#732312" stroke="#732312"/><path d="M1382.391 1484.845l454.678-58.413-281.224 25.367z" fill="#7e2f18" stroke="#7e2f18"/><path d="M1555.845 1451.799l281.224-25.367-150.23-6.839z" fill="#7f2b16" stroke="#7f2b16"/><path d="M1837.068 1426.432l515.449 23.119-349.993-74.957z" fill="#651e13" stroke="#651e13"/><path d="M2002.525 1374.594l349.993 74.957-136.075-67.446z" fill="#5c1a14" stroke="#5c1a14"/><path d="M2352.517 1449.551l258.765-.314-175.456-19.561z" fill="#350d15" stroke="#350d15"/></svg>