<svg width="2560" xmlns="http://www.w3.org/2000/svg" height="1323"><path stroke="#ffcd9b" d="M-134.32-127.25l1.925 1392.2 20.607-625.07z" fill="#ffcd9b"/><path stroke="#fff2d1" d="M-134.32-127.25l22.532 767.13 17.253-451.71z" fill="#fff2d1"/><path stroke="#fff9f0" d="M-134.32-127.25l39.785 315.42 38.449-119.89z" fill="#fff9f0"/><path stroke="#fff8f2" d="M-134.32-127.25l78.234 195.54 122.27-99.382z" fill="#fff8f2"/><path stroke="#fff3e7" d="M-134.32-127.25l200.5 96.155 269.78-95.338z" fill="#fff3e7"/><path stroke="#fecda8" d="M-134.32-127.25l470.28.817 2279.1-5.876z" fill="#fecda8"/><path stroke="#fff4e4" d="M66.178-31.099l-122.27 99.382 152.53 44.474z" fill="#fff4e4"/><path stroke="#fff1df" d="M66.178-31.099l30.26 143.86 73.009-72.382z" fill="#fff1df"/><path stroke="#fff0e1" d="M66.178-31.099l103.27 71.474 79.504-84.486z" fill="#fff0e1"/><path stroke="#feeedd" d="M66.178-31.099l182.77-13.013 87.006-82.325z" fill="#feeedd"/><path stroke="#feebd2" d="M248.95-44.111l-79.504 84.486 259.71 67.552z" fill="#feebd2"/><path stroke="#fee9d3" d="M248.95-44.111l180.2 152.04-93.199-234.36z" fill="#fee9d3"/><path stroke="#fee4cb" d="M335.96-126.44l93.199 234.36 135.33-147.09z" fill="#fee4cb"/><path stroke="#fee1c5" d="M335.96-126.44l228.53 87.272 88.189-6.48z" fill="#fee1c5"/><path stroke="#feddbf" d="M335.96-126.44l316.72 80.792 161.85-22.592z" fill="#feddbf"/><path stroke="#fed8b8" d="M335.96-126.44l478.57 58.2 137.86-45.098z" fill="#fed8b8"/><path stroke="#fed4b2" d="M335.96-126.44l616.43 13.102 128.3-.468z" fill="#fed4b2"/><path stroke="#fec79e" d="M335.96-126.44l744.73 12.634 776.63-8.655z" fill="#fec79e"/><path stroke="#f4ae86" d="M335.96-126.44l1521.4 3.979 757.71-9.854z" fill="#f4ae86"/><path stroke="#fee0bc" d="M564.48-39.165l-135.33 147.09 104.94 2.775z" fill="#fee0bc"/><path stroke="#feddbc" d="M564.48-39.165l-30.393 149.87 101.07-86.945z" fill="#feddbc"/><path stroke="#fedcbe" d="M564.48-39.165l70.677 62.923 17.512-69.403z" fill="#fedcbe"/><path stroke="#fed8b8" d="M652.67-45.645l-17.512 69.403 179.36-91.995z" fill="#fed8b8"/><path stroke="#fed5b1" d="M814.52-68.237l-179.36 91.995 209.2 54.236z" fill="#fed5b1"/><path stroke="#fed0a8" d="M814.52-68.237l29.836 146.23 104.55-14.217z" fill="#fed0a8"/><path stroke="#fecfaa" d="M814.52-68.237l134.38 132.01 3.479-177.11z" fill="#fecfaa"/><path stroke="#fecba4" d="M952.39-113.34l-3.479 177.11 131.78-177.58z" fill="#fecba4"/><path stroke="#fec9a0" d="M1080.7-113.8l-131.78 177.58 162.72-5.248z" fill="#fec9a0"/><path stroke="#fdc39a" d="M1080.7-113.8l30.945 172.33 187.53-84.473z" fill="#fdc39a"/><path stroke="#fbbe94" d="M1080.7-113.8l218.48 87.858 145.68-31.498z" fill="#fbbe94"/><path stroke="#faba90" d="M1080.7-113.8l364.16 56.36 75.988-15.997z" fill="#faba90"/><path stroke="#f9b68b" d="M1080.7-113.8l440.15 40.363 152.74-43.085z" fill="#f9b68b"/><path stroke="#f6b187" d="M1080.7-113.8l592.9-2.722 183.73-5.934z" fill="#f6b187"/><path stroke="#fcbf8f" d="M1299.2-25.944l-187.53 84.473 140.45 43.653z" fill="#fcbf8f"/><path stroke="#fbba88" d="M1299.2-25.944l-47.088 128.13 166.61-15.571z" fill="#fbba88"/><path stroke="#f9b88d" d="M1299.2-25.944l119.53 112.55 26.156-144.05z" fill="#f9b88d"/><path stroke="#f8b386" d="M1444.8-57.442l-26.156 144.05 140.47-71.178z" fill="#f8b386"/><path stroke="#f7b288" d="M1444.8-57.442l114.31 72.874-38.322-88.871z" fill="#f7b288"/><path stroke="#f4af86" d="M1520.8-73.439l38.322 88.871 114.42-131.96z" fill="#f4af86"/><path stroke="#f2ab84" d="M1673.6-116.52l-114.42 131.96 180.99 77.937z" fill="#f2ab84"/><path stroke="#efa782" d="M1673.6-116.52l66.567 209.89 117.17-215.83z" fill="#efa782"/><path stroke="#eba37b" d="M1857.3-122.46l-117.17 215.83 175.11 30.028z" fill="#eba37b"/><path stroke="#e2a07b" d="M1857.3-122.46l57.946 245.86 88.885-28.073z" fill="#e2a07b"/><path stroke="#dd9e81" d="M1857.3-122.46l146.83 217.78 52.402-217.55z" fill="#dd9e81"/><path stroke="#c89782" d="M1857.3-122.46l199.23.234 558.48-10.088z" fill="#c89782"/><path stroke="#d39b81" d="M2056.5-122.22l-52.402 217.55 141.68-57.982z" fill="#d39b81"/><path stroke="#cd9981" d="M2056.5-122.22l89.281 159.57 37.182-73.176z" fill="#cd9981"/><path stroke="#c69682" d="M2056.5-122.22l126.46 86.391 166.02-77.784z" fill="#c69682"/><path stroke="#b69182" d="M2056.5-122.22l292.48 8.607 266-18.694z" fill="#b69182"/><path stroke="#c4957e" d="M2183-35.834l-37.182 73.176 152.81 36.271z" fill="#c4957e"/><path stroke="#bd9382" d="M2183-35.834l115.62 109.45 50.392-187.23z" fill="#bd9382"/><path stroke="#b59082" d="M2349-113.62l-50.392 187.23 118.93-160.24z" fill="#b59082"/><path stroke="#aa8c83" d="M2349-113.62l68.539 26.987 197.46-45.682z" fill="#aa8c83"/><path stroke="#b28f7e" d="M2417.6-86.63l-118.93 160.24 143.93 27.065z" fill="#b28f7e"/><path stroke="#a58b82" d="M2417.6-86.63l24.995 187.31 217.21-84.912z" fill="#a58b82"/><path stroke="#9f8983" d="M2417.6-86.63l242.2 102.4-44.748-148.08z" fill="#9f8983"/><path stroke="#948584" d="M2615-132.31l44.748 148.08 73.33-42.622z" fill="#948584"/><path stroke="#8f8384" d="M2615-132.31l118.08 105.46 74.129 51.503z" fill="#8f8384"/><path stroke="#8d8283" d="M2733.1-26.854l-73.33 42.622 147.46 8.881z" fill="#8d8283"/><path stroke="#fff5d9" d="M-56.089 68.283l-38.449 119.89 149.26-6.692z" fill="#fff5d9"/><path stroke="#fff3d8" d="M-56.089 68.283l110.81 113.2 41.712-68.722z" fill="#fff3d8"/><path stroke="#ffefcc" d="M96.437 112.76l-41.712 68.722 137.65-14.974z" fill="#ffefcc"/><path stroke="#ffeed1" d="M96.437 112.76l95.941 53.748-22.932-126.13z" fill="#ffeed1"/><path stroke="#feeac8" d="M169.45 40.375l22.932 126.13 236.78-58.577z" fill="#feeac8"/><path stroke="#fee5b4" d="M429.15 107.93l-236.78 58.577 239.98 111.23z" fill="#fee5b4"/><path stroke="#fee0ab" d="M429.15 107.93l3.207 169.81 87.513-106.12z" fill="#fee0ab"/><path stroke="#fedfb2" d="M429.15 107.93l90.72 63.693 14.217-60.918z" fill="#fedfb2"/><path stroke="#fedba4" d="M534.09 110.7l-14.217 60.918 104.21 91.56z" fill="#fedba4"/><path stroke="#fedaaa" d="M534.09 110.7l89.997 152.48 11.073-239.42z" fill="#fedaaa"/><path stroke="#fed69d" d="M635.16 23.758l-11.073 239.42 174.18-43.277z" fill="#fed69d"/><path stroke="#fed3a2" d="M635.16 23.758l163.11 196.14 46.089-141.91z" fill="#fed3a2"/><path stroke="#fece92" d="M844.36 77.994l-46.089 141.91 156.53-30.847z" fill="#fece92"/><path stroke="#fecc97" d="M844.36 77.994l110.44 111.06-5.896-125.28z" fill="#fecc97"/><path stroke="#fec88c" d="M948.91 63.776l5.896 125.28 143.83 1.575z" fill="#fec88c"/><path stroke="#fec690" d="M948.91 63.776l149.72 126.86 12.996-132.1z" fill="#fec690"/><path stroke="#fdc188" d="M1111.6 58.529l-12.996 132.1 153.44-88.45z" fill="#fdc188"/><path stroke="#fdbe7c" d="M1252.1 102.18l-153.44 88.45 122.9 49.278z" fill="#fdbe7c"/><path stroke="#fbb872" d="M1252.1 102.18l-30.543 137.73 227.35-10.46z" fill="#fbb872"/><path stroke="#fab677" d="M1252.1 102.18l196.8 127.27-30.189-142.84z" fill="#fab677"/><path stroke="#f8b16f" d="M1418.7 86.61l30.189 142.84 94.544-58.019z" fill="#f8b16f"/><path stroke="#f7b179" d="M1418.7 86.61l124.73 84.82 15.733-156z" fill="#f7b179"/><path stroke="#f4ac72" d="M1559.2 15.432l-15.733 156 157.03-1.063z" fill="#f4ac72"/><path stroke="#f2aa75" d="M1559.2 15.432l141.29 154.94 39.696-76.999z" fill="#f2aa75"/><path stroke="#eea467" d="M1740.1 93.369l-39.696 76.999 152.36 48.176z" fill="#eea467"/><path stroke="#eba168" d="M1740.1 93.369l112.66 125.17 62.448-95.147z" fill="#eba168"/><path stroke="#e29d63" d="M1915.3 123.4l-62.448 95.147 166.78-22.635z" fill="#e29d63"/><path stroke="#dc9c6a" d="M1915.3 123.4l104.34 72.512-15.449-100.58z" fill="#dc9c6a"/><path stroke="#d4996f" d="M2004.1 95.324l15.449 100.58 126.23-158.57z" fill="#d4996f"/><path stroke="#ce9668" d="M2145.8 37.343l-126.23 158.57 176.22 31.514z" fill="#ce9668"/><path stroke="#c4946f" d="M2145.8 37.343l49.991 190.08 102.82-153.81z" fill="#c4946f"/><path stroke="#bd9066" d="M2298.6 73.614l-102.82 153.81 137.79-14.907z" fill="#bd9066"/><path stroke="#b48e6d" d="M2298.6 73.614l34.976 138.9 108.95-111.84z" fill="#b48e6d"/><path stroke="#ae8b67" d="M2442.6 100.68l-108.95 111.84 158-15.845z" fill="#ae8b67"/><path stroke="#a28872" d="M2442.6 100.68l49.047 95.992 168.16-180.9z" fill="#a28872"/><path stroke="#9b846b" d="M2659.8 15.767l-168.16 180.9 159.24 42.082z" fill="#9b846b"/><path stroke="#908274" d="M2659.8 15.767l-8.927 222.99 156.39-214.1z" fill="#908274"/><path stroke="#8a7e69" d="M2807.2 24.648l-156.39 214.1 177.61-8.998z" fill="#8a7e69"/><path stroke="#ffe1b6" d="M-94.538 188.17l-17.253 451.71 47.629-323.82z" fill="#ffe1b6"/><path stroke="#fff0cc" d="M-94.538 188.17l30.377 127.89 118.89-134.58z" fill="#fff0cc"/><path stroke="#ffe6ba" d="M54.726 181.48l-118.89 134.58 151.6 84.91z" fill="#ffe6ba"/><path stroke="#ffe8bc" d="M54.726 181.48l32.709 219.49 104.94-234.47z" fill="#ffe8bc"/><path stroke="#fda" d="M192.38 166.5l-104.94 234.47 104.81 32.035z" fill="#fda"/><path stroke="#fed8a1" d="M192.38 166.5l-.138 266.5 173.65-9.484z" fill="#fed8a1"/><path stroke="#fedba3" d="M192.38 166.5l173.52 257.02 66.468-145.78z" fill="#fedba3"/><path stroke="#fed091" d="M432.36 277.74l-66.468 145.78 119.69-80.65z" fill="#fed091"/><path stroke="#fed79c" d="M432.36 277.74l53.22 65.133 34.292-171.25z" fill="#fed79c"/><path stroke="#fed598" d="M519.87 171.62l-34.292 171.25 138.51-79.691z" fill="#fed598"/><path stroke="#fecc8b" d="M624.09 263.18l-138.51 79.691 132.5 11.166z" fill="#fecc8b"/><path stroke="#fec580" d="M624.09 263.18l-6.005 90.857 177.26 52.113z" fill="#fec580"/><path stroke="#fec783" d="M624.09 263.18l171.26 142.97 2.926-186.25z" fill="#fec783"/><path stroke="#fec580" d="M798.27 219.9l-2.926 186.25 159.46-217.09z" fill="#fec580"/><path stroke="#febc71" d="M954.8 189.06l-159.46 217.09 230.28-15.112z" fill="#febc71"/><path stroke="#febe77" d="M954.8 189.06l70.821 201.98 73.007-200.41z" fill="#febe77"/><path stroke="#feb669" d="M1098.6 190.63l-73.007 200.41 156.4-45.866z" fill="#feb669"/><path stroke="#fdb86f" d="M1098.6 190.63l83.388 154.54 39.512-105.26z" fill="#fdb86f"/><path stroke="#fcac5e" d="M1221.5 239.91l-39.512 105.26 120.74 68.052z" fill="#fcac5e"/><path stroke="#fba858" d="M1221.5 239.91l81.228 173.32 80.459-35.157z" fill="#fba858"/><path stroke="#faac60" d="M1221.5 239.91l161.69 138.16 65.659-148.62z" fill="#faac60"/><path stroke="#f8a253" d="M1448.9 229.45l-65.659 148.62 200.46-10.853z" fill="#f8a253"/><path stroke="#f6a65d" d="M1448.9 229.45l134.8 137.76-40.252-195.78z" fill="#f6a65d"/><path stroke="#f49f54" d="M1543.4 171.43l40.252 195.78 93.39-17.212z" fill="#f49f54"/><path stroke="#f2a45e" d="M1543.4 171.43l133.64 178.57 23.385-179.64z" fill="#f2a45e"/><path stroke="#ef9a53" d="M1700.4 170.37l-23.385 179.64 140.91-14.591z" fill="#ef9a53"/><path stroke="#ee9c59" d="M1700.4 170.37l117.53 165.04 34.833-116.87z" fill="#ee9c59"/><path stroke="#e7914c" d="M1852.8 218.54l-34.833 116.87 153.79 49.236z" fill="#e7914c"/><path stroke="#e09354" d="M1852.8 218.54l118.96 166.1 47.824-188.74z" fill="#e09354"/><path stroke="#d58b4d" d="M2019.6 195.91l-47.824 188.74 186.4-37.174z" fill="#d58b4d"/><path stroke="#cd8e56" d="M2019.6 195.91l138.58 151.56 37.644-120.05z" fill="#cd8e56"/><path stroke="#c4854d" d="M2195.8 227.42l-37.644 120.05 111.79 16.639z" fill="#c4854d"/><path stroke="#be8855" d="M2195.8 227.42l74.143 136.69 63.648-151.6z" fill="#be8855"/><path stroke="#b47d4b" d="M2333.6 212.52l-63.648 151.6 220.03 45.369z" fill="#b47d4b"/><path stroke="#ac8155" d="M2333.6 212.52l156.38 196.97 1.619-212.81z" fill="#ac8155"/><path stroke="#a17c54" d="M2491.6 196.67l-1.619 212.81 160.85-170.73z" fill="#a17c54"/><path stroke="#9d7246" d="M2650.8 238.75l-160.85 170.73 99.755 21.469z" fill="#9d7246"/><path stroke="#94724c" d="M2650.8 238.75l-61.099 192.2 161.15-109.54z" fill="#94724c"/><path stroke="#8c7658" d="M2650.8 238.75l100.05 82.654 77.554-91.653z" fill="#8c7658"/><path stroke="#886b48" d="M2828.4 229.76l-77.554 91.653 25.358 193.08z" fill="#886b48"/><path stroke="#86592f" d="M2828.4 229.76l-52.196 284.74 22.348 311.72z" fill="#86592f"/><path stroke="#ffd7a6" d="M-64.161 316.06l-47.629 323.82 59.359-172.62z" fill="#ffd7a6"/><path stroke="#ffddad" d="M-64.161 316.06l11.73 151.2 139.87-66.292z" fill="#ffddad"/><path stroke="#ffd29d" d="M87.434 400.97l-139.87 66.292 165.61 82.188z" fill="#ffd29d"/><path stroke="#ffd198" d="M87.434 400.97l25.742 148.48 79.064-116.44z" fill="#ffd198"/><path stroke="#fec88a" d="M192.24 433.01l-79.064 116.44 155.39 25.429z" fill="#fec88a"/><path stroke="#fec888" d="M192.24 433.01l76.322 141.87 68.181-108.71z" fill="#fec888"/><path stroke="#fecc8d" d="M192.24 433.01l144.5 33.163 29.149-42.647z" fill="#fecc8d"/><path stroke="#fec480" d="M365.89 423.52l-29.149 42.647 241.07 20.039z" fill="#fec480"/><path stroke="#fec782" d="M365.89 423.52l211.92 62.686-92.236-143.34z" fill="#fec782"/><path stroke="#fec580" d="M485.58 342.87l92.236 143.34 40.265-132.17z" fill="#fec580"/><path stroke="#febb71" d="M618.08 354.04l-40.265 132.17 109.18 60.63z" fill="#febb71"/><path stroke="#feba6f" d="M618.08 354.04l68.918 192.8 108.34-140.69z" fill="#feba6f"/><path stroke="#feb162" d="M795.34 406.15l-108.34 140.69 188.47-39.317zl80.121 101.37 150.16-116.48z" fill="#feb162"/><path stroke="#feab59" d="M1025.6 391.04l-150.16 116.48 52.036 32.989z" fill="#feab59"/><path stroke="#fea956" d="M1025.6 391.04l-98.123 149.47 157.55-73.372z" fill="#fea956"/><path stroke="#feac5a" d="M1025.6 391.04l59.424 76.1 96.971-121.96z" fill="#feac5a"/><path stroke="#fda754" d="M1182 345.17l-96.971 121.96 217.71-53.913z" fill="#fda754"/><path stroke="#fc9d47" d="M1302.8 413.22l-217.71 53.913 182.04 102.34z" fill="#fc9d47"/><path stroke="#fb933a" d="M1302.8 413.22l-35.677 156.25 121.66 48.292z" fill="#fb933a"/><path stroke="#f9933b" d="M1302.8 413.22l85.98 204.54 93.086-147.85z" fill="#f9933b"/><path stroke="#f99b47" d="M1302.8 413.22l179.07 56.697-98.608-91.854z" fill="#f99b47"/><path stroke="#f89845" d="M1383.2 378.07l98.608 91.854 101.85-102.71z" fill="#f89845"/><path stroke="#f6923d" d="M1583.7 367.22l-101.85 102.71 89.711 25.743z" fill="#f6923d"/><path stroke="#f39342" d="M1583.7 367.22l-12.137 128.45 105.53-145.66z" fill="#f39342"/><path stroke="#f28a36" d="M1677.1 350l-105.53 145.66 131.33 87.535z" fill="#f28a36"/><path stroke="#ef8c3c" d="M1677.1 350l25.807 233.2 115.1-247.79z" fill="#ef8c3c"/><path stroke="#ed812f" d="M1818 335.41l-115.1 247.79 199.17-11.682z" fill="#ed812f"/><path stroke="#e58439" d="M1818 335.41l84.062 236.1 69.73-186.87z" fill="#e58439"/><path stroke="#dc7a2f" d="M1971.8 384.65l-69.73 186.87 176.17-42.656z" fill="#dc7a2f"/><path stroke="#d37e3b" d="M1971.8 384.65l106.44 144.21 79.968-181.39z" fill="#d37e3b"/><path stroke="#cc7532" d="M2158.2 347.47l-79.968 181.39 99.64 49.017z" fill="#cc7532"/><path stroke="#c5783a" d="M2158.2 347.47l19.673 230.4 92.115-213.76z" fill="#c5783a"/><path stroke="#bf7031" d="M2270 364.11l-92.115 213.76 149.7-40.128z" fill="#bf7031"/><path stroke="#b47239" d="M2270 364.11l57.587 173.64 162.44-128.27z" fill="#b47239"/><path stroke="#af6930" d="M2490 409.48l-162.44 128.27 98.95 35.731z" fill="#af6930"/><path stroke="#a56935" d="M2490 409.48l-63.49 164 163.24-142.53z" fill="#a56935"/><path stroke="#a0602b" d="M2589.7 430.95l-163.24 142.53 203.41 43.467z" fill="#a0602b"/><path stroke="#985e2d" d="M2589.7 430.95l40.166 186 48.593-67.204z" fill="#985e2d"/><path stroke="#926032" d="M2589.7 430.95l88.759 118.79 97.752-35.253z" fill="#926032"/><path stroke="#90673d" d="M2589.7 430.95l186.51 83.54-25.358-193.08z" fill="#90673d"/><path stroke="#ffca93" d="M-52.432 467.26l-59.359 172.62 178.82 22.548z" fill="#ffca93"/><path stroke="#ffca90" d="M-52.432 467.26l119.46 195.16 46.143-112.98z" fill="#ffca90"/><path stroke="#ffc082" d="M113.18 549.45l-46.143 112.98 210.47-41.704z" fill="#ffc082"/><path stroke="#fec17f" d="M113.18 549.45l164.32 71.271-8.938-45.843z" fill="#fec17f"/><path stroke="#fec17d" d="M268.56 574.88l8.938 45.843 59.244-154.55z" fill="#fec17d"/><path stroke="#feba72" d="M336.74 466.17l-59.244 154.55 200.08 65.452z" fill="#feba72"/><path stroke="#feba70" d="M336.74 466.17l140.84 220.01 100.23-199.97z" fill="#feba70"/><path stroke="#feaf63" d="M577.82 486.21l-100.23 199.97 160.36-58.326z" fill="#feaf63"/><path stroke="#feb163" d="M577.82 486.21l60.128 141.64 49.055-81.011z" fill="#feb163"/><path stroke="#fea857" d="M687 546.84l-49.055 81.011 194.29 6.698z" fill="#fea857"/><path stroke="#fea955" d="M687 546.84l145.24 87.71 43.23-127.03z" fill="#fea955"/><path stroke="#fea551" d="M875.47 507.52l-43.23 127.03 95.266-94.038z" fill="#fea551"/><path stroke="#fe9e49" d="M927.5 540.51l-95.266 94.038 154.87 15.523z" fill="#fe9e49"/><path stroke="#fea14a" d="M927.5 540.51l59.6 109.56 97.947-182.93z" fill="#fea14a"/><path stroke="#fe9a42" d="M1085 467.14l-97.947 182.93 135.59-3.458z" fill="#fe9a42"/><path stroke="#fd983f" d="M1085 467.14l37.644 179.48 144.39-77.137z" fill="#fd983f"/><path stroke="#fc8e35" d="M1267.1 569.48l-144.39 77.137 182.19-.708z" fill="#fc8e35"/><path stroke="#fb8b31" d="M1267.1 569.48l37.802 76.429 83.855-28.137z" fill="#fb8b31"/><path stroke="#f88c33" d="M1481.8 469.92l-93.086 147.85 182.8-122.1z" fill="#f88c33"/><path stroke="#f78228" d="M1571.5 495.66l-182.8 122.1 169.22 89.831z" fill="#f78228"/><path stroke="#f37f27" d="M1571.5 495.66l-13.577 211.94 144.91-124.4z" fill="#f37f27"/><path stroke="#f27620" d="M1702.9 583.2l-144.91 124.4 167.14-53.083z" fill="#f27620"/><path stroke="#ef7520" d="M1702.9 583.2l22.232 71.316 108.9-5.506z" fill="#ef7520"/><path stroke="#ed7521" d="M1702.9 583.2l131.14 65.811 68.032-77.493z" fill="#ed7521"/><path stroke="#e26b1d" d="M1902 571.52l-68.032 77.493 207.74 83.687z" fill="#e26b1d"/><path stroke="#d96d21" d="M1902 571.52l139.71 161.18 36.456-203.84z" fill="#d96d21"/><path stroke="#d1651d" d="M2078.2 528.86l-36.456 203.84 89.941-27.35z" fill="#d1651d"/><path stroke="#cd6922" d="M2078.2 528.86l53.485 176.49 46.156-127.47z" fill="#cd6922"/><path stroke="#c4601d" d="M2177.8 577.88l-46.156 127.47 191.69-9.707z" fill="#c4601d"/><path stroke="#bd6423" d="M2177.8 577.88l145.53 117.76 4.17-157.89z" fill="#bd6423"/><path stroke="#b46123" d="M2327.5 537.75l-4.17 157.89 103.12-122.16z" fill="#b46123"/><path stroke="#b0581d" d="M2426.5 573.48l-103.12 122.16 122.74 34.832z" fill="#b0581d"/><path stroke="#a55720" d="M2426.5 573.48l19.615 156.99 183.8-113.52z" fill="#a55720"/><path stroke="#915122" d="M2678.5 549.74l-48.593 67.204 149.96 105.71z" fill="#915122"/><path stroke="#8c5326" d="M2678.5 549.74l101.37 172.91-3.616-208.17z" fill="#8c5326"/><path stroke="#88471d" d="M2776.3 514.49l3.616 208.17 18.731 103.56z" fill="#88471d"/><path stroke="#ffa789" d="M-111.79 639.88l-20.607 625.07 69.293-381.16z" fill="#ffa789"/><path stroke="#ffba86" d="M-111.79 639.88l48.686 243.91 130.14-221.36z" fill="#ffba86"/><path stroke="#ffb07f" d="M67.033 662.43l-130.14 221.36 114.92-14.864z" fill="#ffb07f"/><path stroke="#ffae79" d="M67.033 662.43l-15.213 206.5 114.63-28.61z" fill="#ffae79"/><path stroke="#ffb477" d="M67.033 662.43l99.421 177.89 111.05-219.59z" fill="#ffb477"/><path stroke="#feaa6b" d="M277.5 620.72l-111.05 219.59 185.42-6.663z" fill="#feaa6b"/><path stroke="#feab68" d="M277.5 620.72l74.371 212.93 33.442-116.74z" fill="#feab68"/><path stroke="#feb06a" d="M277.5 620.72l107.81 96.185 92.272-30.733z" fill="#feb06a"/><path stroke="#fea05e" d="M385.31 716.91l-33.442 116.74 203.07-3.276z" fill="#fea05e"/><path stroke="#fea35c" d="M385.31 716.91l169.63 113.47-77.361-144.2z" fill="#fea35c"/><path stroke="#fea258" d="M477.58 686.18l77.361 144.2 83-202.52z" fill="#fea258"/><path stroke="#fe9b51" d="M637.94 627.85l-83 202.52 66.894 1.704z" fill="#fe9b51"/><path stroke="#fe9e4f" d="M637.94 627.85l-16.106 204.23 210.4-197.53z" fill="#fe9e4f"/><path stroke="#fe9246" d="M832.24 634.55l-210.4 197.53 197.03 37.895z" fill="#fe9246"/><path stroke="#fe9441" d="M832.24 634.55l-13.368 235.43 168.23-219.9z" fill="#fe9441"/><path stroke="#fe883a" d="M987.1 650.07l-168.23 219.9 194.27-7.979z" fill="#fe883a"/><path stroke="#fe8c37" d="M987.1 650.07l26.033 211.92 109.56-215.38z" fill="#fe8c37"/><path stroke="#fe8230" d="M1122.7 646.61l-109.56 215.38 148.62 3.251z" fill="#fe8230"/><path stroke="#fd842e" d="M1122.7 646.61l39.064 218.63 143.13-219.34z" fill="#fd842e"/><path stroke="#fb7b26" d="M1304.9 645.9l-143.13 219.34 172.56-52.828z" fill="#fb7b26"/><path stroke="#fa8128" d="M1304.9 645.9l29.426 166.51 54.429-194.65z" fill="#fa8128"/><path stroke="#f97a21" d="M1388.7 617.77l-54.429 194.65 223.65-104.82z" fill="#f97a21"/><path stroke="#f9701c" d="M1558 707.6l-223.65 104.82 114.65 55.393z" fill="#f9701c"/><path stroke="#f66b1a" d="M1558 707.6l-109 160.21 137.65-11.499z" fill="#f66b1a"/><path stroke="#f36917" d="M1558 707.6l28.651 148.71 144.9-66.137z" fill="#f36917"/><path stroke="#f16e1a" d="M1558 707.6l173.55 82.576-6.408-135.66z" fill="#f16e1a"/><path stroke="#ee6c19" d="M1725.1 654.52l6.408 135.66 102.5-141.16z" fill="#ee6c19"/><path stroke="#ed6313" d="M1834 649.01l-102.5 141.16 134.47 50.408z" fill="#ed6313"/><path stroke="#e36114" d="M1834 649.01l31.978 191.57 175.76-107.89z" fill="#e36114"/><path stroke="#de5813" d="M2041.8 732.7l-175.76 107.89 114.69 33.353z" fill="#de5813"/><path stroke="#d55613" d="M2041.8 732.7l-61.074 141.24 146.79-84.086z" fill="#d55613"/><path stroke="#d05a15" d="M2041.8 732.7l85.715 57.153 4.226-84.503z" fill="#d05a15"/><path stroke="#c65816" d="M2131.7 705.35l-4.226 84.503 195.91-94.21z" fill="#c65816"/><path stroke="#c14f14" d="M2323.4 695.64l-195.91 94.21 152.8 129.31z" fill="#c14f14"/><path stroke="#b84c14" d="M2323.4 695.64l-43.11 223.52 98.427-146.09z" fill="#b84c14"/><path stroke="#b25117" d="M2323.4 695.64l55.317 77.425 67.418-42.592z" fill="#b25117"/><path stroke="#ae4b15" d="M2446.1 730.47l-67.418 42.592 60.836 42.563z" fill="#ae4b15"/><path stroke="#a64515" d="M2446.1 730.47l-6.582 85.155 156.39 56.756z" fill="#a64515"/><path stroke="#a04a17" d="M2446.1 730.47l149.81 141.91 33.986-255.44z" fill="#a04a17"/><path stroke="#944618" d="M2629.9 616.95l-33.986 255.44 183.95-149.73z" fill="#944618"/><path stroke="#8e3c16" d="M2779.9 722.66l-183.95 149.73 202.68-46.167z" fill="#8e3c16"/><path stroke="#e09a88" d="M-63.105 883.79l-69.293 381.16 58.078-183.72z" fill="#e09a88"/><path stroke="#f5a085" d="M-63.105 883.79l-11.215 197.45 39.314-80.695z" fill="#f5a085"/><path stroke="#ffa582" d="M-63.105 883.79l28.099 116.75 86.826-131.62z" fill="#ffa582"/><path stroke="#ffa17e" d="M51.821 868.92l-86.826 131.62 108.64-35.458z" fill="#ffa17e"/><path stroke="#ffa379" d="M51.821 868.92l21.813 96.157 92.821-124.77z" fill="#ffa379"/><path stroke="#ff9d72" d="M166.46 840.31l-92.821 124.77 207.6-14.458z" fill="#ff9d72"/><path stroke="#fe9e6b" d="M166.46 840.31l114.78 110.31 70.64-116.97z" fill="#fe9e6b"/><path stroke="#fe9764" d="M351.87 833.65l-70.64 116.97 128.34 4.548z" fill="#fe9764"/><path stroke="#fe945f" d="M351.87 833.65l57.703 121.52 62.317-3.271z" fill="#fe945f"/><path stroke="#fe965c" d="M351.87 833.65l120.02 118.25 83.054-121.52z" fill="#fe965c"/><path stroke="#fe9255" d="M554.95 830.38l-83.054 121.52 149.95-119.82z" fill="#fe9255"/><path stroke="#fe8951" d="M621.84 832.08l-149.95 119.82 248.02 65.82z" fill="#fe8951"/><path stroke="#fe8748" d="M621.84 832.08l98.075 185.64 98.954-147.75z" fill="#fe8748"/><path stroke="#fa7d42" d="M818.87 869.97l-98.954 147.75 163.05-13.418z" fill="#fa7d42"/><path stroke="#fe7b3c" d="M818.87 869.97l64.1 134.33 127.1-67.191z" fill="#fe7b3c"/><path stroke="#fe7e39" d="M818.87 869.97l191.2 67.138 3.07-75.117z" fill="#fe7e39"/><path stroke="#fe7633" d="M1013.1 861.99l-3.07 75.117 90.662 33.375z" fill="#fe7633"/><path stroke="#fe7630" d="M1013.1 861.99l87.592 108.49 61.03-105.24z" fill="#fe7630"/><path stroke="#fb6d2c" d="M1161.8 865.25l-61.03 105.24 148.14 61.643z" fill="#fb6d2c"/><path stroke="#fc6f27" d="M1161.8 865.25l87.109 166.88 85.445-219.71z" fill="#fc6f27"/><path stroke="#fa6a22" d="M1334.3 812.42l-85.445 219.71 200.1-164.32z" fill="#fa6a22"/><path stroke="#f9641f" d="M1449 867.81l-200.1 164.32 222.08-114.7z" fill="#f9641f"/><path stroke="#f7641a" d="M1449 867.81l21.98 49.62 115.67-61.119z" fill="#f7641a"/><path stroke="#f65f19" d="M1586.6 856.31l-115.67 61.119 73.506 70.59z" fill="#f65f19"/><path stroke="#f45c18" d="M1586.6 856.31l-42.161 131.71 121.27-69.869z" fill="#f45c18"/><path stroke="#f26016" d="M1586.6 856.31l79.109 61.84 65.79-127.98z" fill="#f26016"/><path stroke="#ef5d14" d="M1731.5 790.17l-65.79 127.98 200.26-77.569z" fill="#ef5d14"/><path stroke="#ed5313" d="M1866 840.58l-200.26 77.569 252.18 72.329z" fill="#ed5313"/><path stroke="#e25013" d="M1866 840.58l51.92 149.9 62.771-116.54z" fill="#e25013"/><path stroke="#db4b13" d="M1980.7 873.94l-62.771 116.54 157.01-59.307z" fill="#db4b13"/><path stroke="#d44f13" d="M1980.7 873.94l94.237 57.238 52.552-141.32z" fill="#d44f13"/><path stroke="#c94914" d="M2127.5 789.85l-52.552 141.32 205.36-12.016z" fill="#c94914"/><path stroke="#b44714" d="M2378.7 773.06l-98.427 146.09 159.26-103.53z" fill="#b44714"/><path stroke="#ae3d15" d="M2439.5 815.63l-159.26 103.53 250.61 94.183z" fill="#ae3d15"/><path stroke="#a33a15" d="M2439.5 815.63l91.344 197.71 65.047-140.96z" fill="#a33a15"/><path stroke="#993215" d="M2595.9 872.38l-65.047 140.96 41.55 4.768z" fill="#993215"/><path stroke="#922f16" d="M2595.9 872.38l-23.497 145.72 213.18-20.629z" fill="#922f16"/><path stroke="#8e3316" d="M2595.9 872.38l189.68 125.1 12.995-171.26z" fill="#8e3316"/><path stroke="#e19883" d="M-35.006 1000.5l-39.314 80.695 112.51 58.243z" fill="#e19883"/><path stroke="#ea997f" d="M-35.006 1000.5l73.2 138.94 35.439-174.4z" fill="#ea997f"/><path stroke="#e49376" d="M73.633 965.08l-35.439 174.4 239.04-59.665z" fill="#e49376"/><path stroke="#f2956f" d="M73.633 965.08l203.6 114.73 4-129.19z" fill="#f2956f"/><path stroke="#f39066" d="M281.23 950.62l-4 129.19 132.34-124.64z" fill="#f39066"/><path stroke="#e48963" d="M409.58 955.17l-132.34 124.64 117.8 55.813z" fill="#e48963"/><path stroke="#e3865d" d="M409.58 955.17l-14.544 180.45 120.6-46.473z" fill="#e3865d"/><path stroke="#f28a5b" d="M409.58 955.17l106.06 133.98-43.742-137.25z" fill="#f28a5b"/><path stroke="#ed8353" d="M471.89 951.9l43.742 137.25 204.28-71.432z" fill="#ed8353"/><path stroke="#e17b4d" d="M719.92 1017.7l-204.28 71.432 195.88 12.296z" fill="#e17b4d"/><path stroke="#dc7547" d="M719.92 1017.7l-8.403 83.728 79.053 52.891z" fill="#dc7547"/><path stroke="#e47543" d="M719.92 1017.7l70.65 136.62 92.404-150.04z" fill="#e47543"/><path stroke="#d86e3e" d="M882.97 1004.3l-92.404 150.04 142.91 8.95z" fill="#d86e3e"/><path stroke="#df6c38" d="M882.97 1004.3l50.51 158.99 134.94-89.728z" fill="#df6c38"/><path stroke="#f07237" d="M882.97 1004.3l185.45 69.259-58.355-136.45z" fill="#f07237"/><path stroke="#f36f32" d="M1010.1 937.11l58.355 136.45 32.307-103.07z" fill="#f36f32"/><path stroke="#eb692d" d="M1100.7 970.49l-32.307 103.07 180.45-41.431z" fill="#eb692d"/><path stroke="#df622a" d="M1248.9 1032.1l-180.45 41.431 207.72 38.32z" fill="#df622a"/><path stroke="#e96023" d="M1248.9 1032.1l27.27 79.751 194.81-194.45z" fill="#e96023"/><path stroke="#dd581e" d="M1470.9 917.43l-194.81 194.45 193.16 62.987z" fill="#dd581e"/><path stroke="#e4571a" d="M1470.9 917.43l-1.648 257.44 75.154-186.85z" fill="#e4571a"/><path stroke="#d2501a" d="M1544.5 988.02l-75.154 186.85 73.438-37.847z" fill="#d2501a"/><path stroke="#d54e18" d="M1544.5 988.02l-1.716 149 127.43-17.947z" fill="#d54e18"/><path stroke="#e45317" d="M1544.5 988.02l125.71 131.05-4.443-200.92z" fill="#e45317"/><path stroke="#e04d14" d="M1665.7 918.15l4.443 200.92 247.74-128.59z" fill="#e04d14"/><path stroke="#ce4412" d="M1917.9 990.48l-247.74 128.59 259.94-21.455z" fill="#ce4412"/><path stroke="#c44113" d="M1917.9 990.48l12.198 107.14 63.164.933z" fill="#c44113"/><path stroke="#cc4413" d="M1917.9 990.48l75.362 108.07 81.646-167.38z" fill="#cc4413"/><path stroke="#bf3f13" d="M2074.9 931.17l-81.646 167.38 149.81-32.92z" fill="#bf3f13"/><path stroke="#bf3f14" d="M2074.9 931.17l68.163 134.46 71.243-63.974z" fill="#bf3f14"/><path stroke="#c54114" d="M2074.9 931.17l139.41 70.486 65.95-82.501z" fill="#c54114"/><path stroke="#ab3814" d="M2214.3 1001.7l-71.243 63.974 153.06 14.039z" fill="#ab3814"/><path stroke="#b13a14" d="M2214.3 1001.7l81.818 78.013-15.868-160.51z" fill="#b13a14"/><path stroke="#a23514" d="M2280.3 919.16l15.868 160.51 119.95 30.526z" fill="#a23514"/><path stroke="#9f3415" d="M2280.3 919.16l135.82 191.04 114.79-96.857z" fill="#9f3415"/><path stroke="#802915" d="M2530.9 1013.3l-114.79 96.857 174.31 68.742z" fill="#802915"/><path stroke="#822915" d="M2530.9 1013.3l59.525 165.6-17.975-160.83z" fill="#822915"/><path stroke="#702316" d="M2572.4 1018.1l17.975 160.83 142.84-24.607z" fill="#702316"/><path stroke="#772616" d="M2572.4 1018.1l160.82 136.22 52.36-156.85z" fill="#772616"/><path stroke="#611d16" d="M2785.6 997.48l-52.36 156.85-6.57 72.568z" fill="#611d16"/><path stroke="#4b1516" d="M2785.6 997.48l-58.93 229.42 2.729 222.46z" fill="#4b1516"/><path stroke="#cc9185" d="M-74.32 1081.2l-58.078 183.72 170.59-125.48z" fill="#cc9185"/><path stroke="#b98882" d="M38.194 1139.5l-170.59 125.48 185.89 69.262z" fill="#b98882"/><path stroke="#b88479" d="M38.194 1139.5l15.297 194.74 134.93-67.125z" fill="#b88479"/><path stroke="#cc8873" d="M38.194 1139.5l150.23 127.61 88.811-187.28z" fill="#cc8873"/><path stroke="#cc8369" d="M277.23 1079.8l-88.811 187.28 206.61-131.46z" fill="#cc8369"/><path stroke="#bd7c66" d="M395.03 1135.6l-206.61 131.46 217.36 6.286z" fill="#bd7c66"/><path stroke="#c1795e" d="M395.03 1135.6l10.756 137.75 73.057-53.098z" fill="#c1795e"/><path stroke="#cf7d5b" d="M395.03 1135.6l83.813 84.652 36.791-131.12z" fill="#cf7d5b"/><path stroke="#c27455" d="M515.63 1089.2l-36.791 131.12 175 79.04z" fill="#c27455"/><path stroke="#cb744f" d="M515.63 1089.2l138.21 210.16 57.669-197.87z" fill="#cb744f"/><path stroke="#c66e48" d="M711.51 1101.4l-57.669 197.87 136.72-144.98z" fill="#c66e48"/><path stroke="#b96746" d="M790.56 1154.3l-136.72 144.98 155.68-22.03z" fill="#b96746"/><path stroke="#c36740" d="M790.56 1154.3l18.955 122.95 123.96-114z" fill="#c36740"/><path stroke="#bd613b" d="M933.48 1163.3l-123.96 114 208.01-42.467z" fill="#bd613b"/><path stroke="#cd6336" d="M933.48 1163.3l84.054 71.53 50.888-161.26z" fill="#cd6336"/><path stroke="#c65e32" d="M1068.4 1073.6l-50.888 161.26 74.782 11.557z" fill="#c65e32"/><path stroke="#cf5e2d" d="M1068.4 1073.6l23.894 172.82 183.82-134.5z" fill="#cf5e2d"/><path stroke="#c25629" d="M1276.1 1111.9l-183.82 134.5 207.91-20.259z" fill="#c25629"/><path stroke="#c65222" d="M1276.1 1111.9l24.085 114.24 169.08-51.249z" fill="#c65222"/><path stroke="#bb4b1e" d="M1469.3 1174.9l-169.08 51.249 177.29 12.153z" fill="#bb4b1e"/><path stroke="#c0491a" d="M1469.3 1174.9l8.217 63.402 65.221-101.25z" fill="#c0491a"/><path stroke="#b6451a" d="M1542.7 1137l-65.221 101.25 104.08 48.581z" fill="#b6451a"/><path stroke="#b54218" d="M1542.7 1137l38.859 149.83 107.73-64.289z" fill="#b54218"/><path stroke="#c14617" d="M1542.7 1137l146.59 85.541-19.16-103.49z" fill="#c14617"/><path stroke="#b63e14" d="M1670.2 1119.1l19.16 103.49 164.1 8.772z" fill="#b63e14"/><path stroke="#bd3e13" d="M1670.2 1119.1l183.26 112.26 76.677-133.72z" fill="#bd3e13"/><path stroke="#b43b13" d="M1930.1 1097.6l-76.677 133.72 139.84-132.78z" fill="#b43b13"/><path stroke="#a03313" d="M1993.3 1098.6l-139.84 132.78 135.34 90.795z" fill="#a03313"/><path stroke="#a33413" d="M1993.3 1098.6l-4.5 223.58 154.31-256.5z" fill="#a33413"/><path stroke="#8b2c13" d="M2143.1 1065.6l-154.31 256.5 237.06-13.078z" fill="#8b2c13"/><path stroke="#932f14" d="M2143.1 1065.6l82.749 243.42 70.312-229.38z" fill="#932f14"/><path stroke="#792614" d="M2296.1 1079.7l-70.312 229.38 131.08-14.07z" fill="#792614"/><path stroke="#822914" d="M2296.1 1079.7l60.767 215.31 59.184-184.78z" fill="#822914"/><path stroke="#6a2015" d="M2416.1 1110.2l-59.184 184.78 86.826 31.87z" fill="#6a2015"/><path stroke="#681f15" d="M2416.1 1110.2l27.642 216.65 123.88-94.867z" fill="#681f15"/><path stroke="#6e2215" d="M2416.1 1110.2l151.53 121.79 22.788-53.045z" fill="#6e2215"/><path stroke="#5a1a16" d="M2590.4 1178.9l-22.788 53.045 159.06-5.083z" fill="#5a1a16"/><path stroke="#5a1b16" d="M2590.4 1178.9l136.28 47.962 6.57-72.568z" fill="#5a1b16"/><path stroke="#a28286" d="M-132.4 1265l9.8 160.24 176.09-90.98z" fill="#a28286"/><path stroke="#957a80" d="M53.491 1334.2l-176.09 90.98 234.24 14.965z" fill="#957a80"/><path stroke="#a17a77" d="M53.491 1334.2l58.148 105.94 76.782-173.07z" fill="#a17a77"/><path stroke="#9c7571" d="M188.42 1267.1l-76.782 173.07 152.77-46.028z" fill="#9c7571"/><path stroke="#a97669" d="M188.42 1267.1l75.987 127.04 141.38-120.76z" fill="#a97669"/><path stroke="#9d7066" d="M405.79 1273.4l-141.38 120.76 55.351 25.118z" fill="#9d7066"/><path stroke="#9f6d5f" d="M405.79 1273.4l-86.028 145.87 198.82-45.894z" fill="#9f6d5f"/><path stroke="#ae715b" d="M405.79 1273.4l112.79 99.979-39.737-153.08z" fill="#ae715b"/><path stroke="#ac6c55" d="M478.84 1220.3l39.737 153.08 135.26-74.037z" fill="#ac6c55"/><path stroke="#996251" d="M653.84 1299.3l-135.26 74.037 110.69 98.89z" fill="#996251"/><path stroke="#965d4a" d="M653.84 1299.3l-24.572 172.93 191.81-65.848z" fill="#965d4a"/><path stroke="#a55f45" d="M653.84 1299.3l167.24 107.08-11.564-129.11z" fill="#a55f45"/><path stroke="#9b573e" d="M809.52 1277.3l11.564 129.11 154.05 19.562z" fill="#9b573e"/><path stroke="#a9593a" d="M809.52 1277.3l165.62 148.67 42.394-191.14z" fill="#a9593a"/><path stroke="#ab5634" d="M1017.5 1234.8l-42.394 191.14 117.18-179.58z" fill="#ab5634"/><path stroke="#994e33" d="M1092.3 1246.4l-117.18 179.58 112.16 37.689z" fill="#994e33"/><path stroke="#9d4c2e" d="M1092.3 1246.4l-5.02 217.27 143.21-94.954z" fill="#9d4c2e"/><path stroke="#ae4f2a" d="M1092.3 1246.4l138.19 122.32 69.717-142.58z" fill="#ae4f2a"/><path stroke="#9a4424" d="M1300.2 1226.1l-69.717 142.58 151.89 116.15z" fill="#9a4424"/><path stroke="#a34320" d="M1300.2 1226.1l82.169 258.73 95.124-246.57z" fill="#a34320"/><path stroke="#90381b" d="M1477.5 1238.3l-95.124 246.57 173.45-33.045z" fill="#90381b"/><path stroke="#9d3b19" d="M1477.5 1238.3l78.33 213.53 25.75-164.95z" fill="#9d3b19"/><path stroke="#8d3318" d="M1581.6 1286.9l-25.75 164.95 130.99-32.206z" fill="#8d3318"/><path stroke="#9d3717" d="M1581.6 1286.9l105.24 132.74 2.486-197.03z" fill="#9d3717"/><path stroke="#9f3514" d="M1689.3 1222.6l-2.486 197.03 166.59-188.26z" fill="#9f3514"/><path stroke="#8d2d13" d="M1853.4 1231.3l-166.59 188.26 150.23 6.839z" fill="#8d2d13"/><path stroke="#8c2b13" d="M1853.4 1231.3l-16.357 195.1 151.7-104.3z" fill="#8c2b13"/><path stroke="#7c2613" d="M1988.8 1322.1l-151.7 104.3 165.46-51.838z" fill="#7c2613"/><path stroke="#782413" d="M1988.8 1322.1l13.759 52.465 223.3-65.542z" fill="#782413"/><path stroke="#6b1f14" d="M2225.8 1309.1l-223.3 65.542 213.92 7.511z" fill="#6b1f14"/><path stroke="#651e14" d="M2225.8 1309.1l-9.382 73.053 140.46-87.123z" fill="#651e14"/><path stroke="#561814" d="M2356.9 1295l-140.46 87.123 136.08 67.446z" fill="#561814"/><path stroke="#521715" d="M2356.9 1295l-4.386 154.57 91.212-122.7z" fill="#521715"/><path stroke="#441215" d="M2443.7 1326.9l-91.212 122.7 83.31-19.875z" fill="#441215"/><path stroke="#3b0f15" d="M2443.7 1326.9l-7.903 102.82 175.46 19.561z" fill="#3b0f15"/><path stroke="#461315" d="M2443.7 1326.9l167.55 122.38-43.67-217.25z" fill="#461315"/><path stroke="#441216" d="M2567.6 1232l43.67 217.25 115.39-222.34z" fill="#441216"/><path stroke="#2e0a16" d="M2726.7 1226.9l-115.39 222.34 118.12.121z" fill="#2e0a16"/><path stroke="#8a6964" d="M111.64 1440.2l517.63 32.085-309.51-52.996z" fill="#8a6964"/><path stroke="#906f6e" d="M111.64 1440.2l208.12-20.911-55.351-25.118z" fill="#906f6e"/><path stroke="#8f6459" d="M319.76 1419.2l309.51 52.996-110.69-98.89z" fill="#8f6459"/><path stroke="#834a34" d="M629.27 1472.2l753.12 12.6-295.1-21.198z" fill="#834a34"/><path stroke="#88503d" d="M629.27 1472.2l458.02-8.598-112.16-37.689z" fill="#88503d"/><path stroke="#8c5442" d="M629.27 1472.2l345.87-46.287-154.05-19.562z" fill="#8c5442"/><path stroke="#894028" d="M1087.3 1463.6l295.1 21.198-151.89-116.15z" fill="#894028"/><path stroke="#491514" d="M1382.4 1484.8l1347-35.486-118.12-.121z" fill="#491514"/><path stroke="#561a13" d="M1382.4 1484.8l1228.9-35.608-258.76.314z" fill="#561a13"/><path stroke="#732312" d="M1382.4 1484.8l970.13-35.294-515.45-23.119z" fill="#732312"/><path stroke="#7e2f18" d="M1382.4 1484.8l454.68-58.413-281.22 25.367z" fill="#7e2f18"/><path stroke="#7f2b16" d="M1555.8 1451.8l281.22-25.367-150.23-6.839z" fill="#7f2b16"/><path stroke="#651e13" d="M1837.1 1426.4l515.45 23.119-349.99-74.957z" fill="#651e13"/><path stroke="#5c1a14" d="M2002.5 1374.6l349.99 74.957-136.08-67.446z" fill="#5c1a14"/><path stroke="#350d15" d="M2352.5 1449.6l258.76-.314-175.46-19.561z" fill="#350d15"/></svg>