<svg xmlns="http://www.w3.org/2000/svg">
  <symbol id="lol" viewBox="0 0 829 311">
    <title>League of Legends</title>
    <path d="M351.98 10.33c14.92-4.63 30.39-7.78 45.99-8.81 8.02.07 16.02-1.4 24.03-.41 15.48.49 31.12 2.07 45.92 6.86-10.25-.29-20.24 2.93-29.8 6.33-14.33.18-28.73-1.92-43.02.01-5.85.4-11.67 1.22-17.44 2.27-.62-2.55-1.58-5.46-4.61-5.88-7-.6-14.06.37-21.07-.37zM145.38 7.6c10.39-.04 20.79.06 31.18-.05.03 32.75.01 65.5.01 98.25 16.79.02 33.59-.08 50.38.05-3.86 4.5-8.19 8.56-12.41 12.7-1.35 1.66-3.69 1.01-5.54 1.19-21.36-.13-42.73.18-64.1-.13 3.64-4.13 10.04-7.19 9.83-13.51.11-28.03-.15-56.07-.07-84.11-.03-1.75.08-3.55-.42-5.26-2.56-3.4-5.92-6.09-8.86-9.13zm288.46 17.21c12.9-7.83 28.26-10.48 43.17-10.19 8.24-.26 16.34 1.45 24.5 2.27.09 7.05.29 14.11-.17 21.15-12.96-4.06-26.6-7.69-40.28-5.75-8.05.96-15.87 4.33-21.68 10.05-7.79 7.15-10.64 18.31-9.91 28.58 1.1 10.69 6.62 20.84 14.73 27.83 13.29 11.13 32.35 12.01 48.44 7.45-.07-9.19.28-18.42-.2-27.6-2.82-4.41-6.86-7.87-10.17-11.9 10.07-.01 20.15.02 30.23-.01.01 17.82.11 35.64-.05 53.45-18.37 2.43-37.12 5.17-55.6 2.11-14.11-2.32-27.93-8.85-37.24-19.93-9.46-11.32-12.74-26.88-10.62-41.28 2.53-14.9 11.84-28.53 24.85-36.23zm-120.99 3.2c6.39-3.47 12.59-7.29 19.18-10.38 2.53 3.04 4.81 6.29 7.36 9.32.02.26.07.78.1 1.04-7.13 3.52-14.35 7.01-20.76 11.75-3.05 2.09-5.8 4.58-8.85 6.65-1.7.35-3.46.32-5.18.45-.01-4.5.08-9-.05-13.5 2.28-2.4 5.35-3.75 8.2-5.33z"/>
    <path d="M224.55 18.61c24.55.03 49.11-.02 73.66.03.02 8.63.02 17.26-.01 25.89-4.84-3.92-8.03-11.03-15.1-11.13-10.17-.08-20.36.2-30.54.03.07 7.97-.01 15.95.02 23.92 8.68 0 17.37.05 26.06-.01.03 5.41-.01 10.81.02 16.22-8.62-.06-17.25-.06-25.87.01.3 4.14.37 8.28.38 12.43-.53 6.61.06 13.22-.04 19.83 11.29-.05 22.58.01 33.87-.03 5.63.05 11.26-.04 16.89.05-1.67 5.32-3.7 10.51-5.69 15.72-24.18-.04-48.36.07-72.54-.06 2.7-2.95 5.95-5.38 8.44-8.51 2.02-3.35.66-7.34.72-10.98-.01-23.35-.01-46.69-.06-70.03-.07-1.32 0-2.83-.98-3.86-2.81-3.42-6.19-6.31-9.23-9.52zm113.6.02c10.97-.11 21.96-.31 32.92.06 2.06 2.6 2.91 5.9 4.21 8.9 10.96 26.78 22.03 53.51 32.89 80.33 1.92 5.9 7.68 9.13 11.51 13.67-8.54.01-17.09.07-25.62-.07-1.37.19-1.67-1.45-2.19-2.32-5.06-11.84-9.75-23.85-14.85-35.67-11.68-.27-23.38-.15-35.06-.03-5.38 12.54-9.94 25.43-15.28 37.98-6.11.25-12.22.01-18.33.08 12.31-29.69 24.53-59.42 36.97-89.05.57-1.85 2.35-3.98 1.09-5.89-2.59-2.83-5.59-5.24-8.26-7.99zm20.8 23.07c-3.54 8.92-7.35 17.74-10.85 26.68 7.27.07 14.54.04 21.81.01-3.17-9.07-7.05-17.88-10.02-27.03-.23.09-.7.26-.94.34zm156.57-23.02c8.75.02 17.5-.01 26.25-.01.03 22.78.03 45.55-.01 68.33-.04 4.83 1.06 10.06 4.66 13.54 3.84 3.94 9.36 5.3 14.49 6.68 3.41.24 6.83.24 10.25.02 4.89-1.24 9.98-2.75 13.71-6.34 3.25-3.42 4.26-8.33 4.34-12.91-.02-23.12 0-46.24-.03-69.36 8.68.1 17.36-.03 26.04.07-2.83 3.24-6.95 5.73-8.78 9.63-.35 26.22-.07 52.47-.15 78.7.14 1.56-.27 3.43.88 4.71 3.03 3.48 6.65 6.37 9.86 9.68-9.77.3-19.54.12-29.31.1-.01-2.38-.02-4.76-.04-7.14-7.05 6.2-16.4 9.33-25.74 9.2-7.87.64-15.81-.91-22.76-4.68-7.69-4.66-13.89-12.63-13.99-21.94-1.49-19.91-.66-39.94-.93-59.9-.29-3.53.81-7.41-.96-10.65-2.34-2.82-5.17-5.19-7.78-7.73zm108.17-.01c24.55-.06 49.1-.02 73.66-.01-.02 8.53.04 17.06-.04 25.6-3.82-3.44-7.32-7.22-11.06-10.75-11.55-.13-23.11-.09-34.66-.08.09 7.97 0 15.94.02 23.9 8.7-.01 17.4-.01 26.11 0 .04 5.41-.03 10.82.02 16.22-8.47-.01-16.95 0-25.43.01-.02 10.74.02 21.48-.01 32.22 17.81-.02 35.62.01 53.44-.01-4.27 5.28-8.25 10.87-13.1 15.63-22.66.37-45.35.14-68.02.16 2.69-2.97 5.91-5.45 8.37-8.63 1.04-2.12 1.04-4.62 1.17-6.93-.79-25.02-.07-50.06-.4-75.09-.02-1.24-.28-2.54-1.25-3.4-2.89-2.99-5.89-5.88-8.82-8.84z"/>
    <path d="M508.67 24.69c3.03 2.93 5.96 5.95 8.96 8.92.04 3.6.03 7.19.03 10.78-3.4-2.55-7.13-4.72-10.19-7.69-.36-4.01-.51-8.25 1.2-12.01zM64.11 34.5c28.15-.21 56.3-.04 84.44-.08 0 4.05-.02 8.11.04 12.16-18.37.07-36.74 0-55.11.04 1.76 16.17 1.56 33.32-5.59 48.27-2.64 5.84-6.89 10.69-10.98 15.55-14.92.55-29.94-.68-44.79 1.04 3.53 3.8 6.64 7.96 9.9 12-8.23.89-16.5.08-24.68-.85-.2 4.46-.04 8.93.45 13.37 2.99 20.11 6.08 40.62 15.1 59.08 4.23 9.02 10.06 17.13 15.42 25.48.99 1.63 2.04 3.4 1.96 5.38.03 4.91-.19 9.83.07 14.75-.35-.44-.78-.42-1.27.05-20.02-18.24-35.97-41.48-43.08-67.8-6.5-23.33-6.75-48.12-2.45-71.86 11.76 7.02 25.92 10.55 39.53 7.96 11.39-2.21 21.49-9.39 28.11-18.81 6.76-10.16 9.11-23.25 6.14-35.1-2.05-8.11-7.16-15-13.21-20.63zm118.55-.12c14.9-.02 29.8-.04 44.7.01-.01 4.06-.03 8.13.02 12.19-14.91.01-29.82.05-44.73-.02.03-4.06.02-8.12.01-12.18zm365.81.01c10.57-.01 21.15-.01 31.73.01.04 4.05-.01 8.11.05 12.16-10.59.12-21.19.02-31.78.05-.01-4.08.02-8.15 0-12.22zm64.24.03c5.17-.04 10.35.03 15.53-.03.06 4.06.02 8.11.03 12.17-5.19.03-10.38.03-15.57 0-.01-4.05.02-8.09.01-12.14zm92.52-.05c19.94.11 39.89-.05 59.84.09-3.3 3.87-6.92 7.55-9.36 12.06-6.93 12.57-6.13 28.67.99 40.98 6.26 10.72 16.95 19.09 29.29 21.33 13.61 2.83 27.83-.75 39.65-7.68 2.4 10.42 3.23 21.18 3.07 31.86.61 27.15-7.71 54.05-21.79 77.13-3.22-4.56-7.13-8.57-10.49-12.99 3.45-10.33 8.06-20.31 10.58-30.96 3.72-14.2 4.5-28.93 5.93-43.48-5.13.48-10.27.81-15.41 1.07-.03-2.31-.04-4.62-.04-6.93-13.6-6.32-28.71-8.02-43.54-8.49-2.19.04-4.15-1.21-5.39-2.93-4.71-6.1-8.4-13.09-10.15-20.61-1.69-6.14.3-12.71-1.81-18.77-2.4-6.32.34-12.93-.1-19.42-10.44-.05-20.88-.01-31.32-.02 0-4.08 0-8.16.05-12.24zm-44.71 7.4c.36-.5 1.08-1.51 1.43-2.01 7.01-.02 14.01-.08 21.01-.06 4.61-.79 6.7 4.19 9.47 6.9-10.46.01-20.92.22-31.37-.1-.22-1.57-.43-3.15-.54-4.73zm-399.1.55c8.47-1.54 17.22-.2 25.81-.69 1.69 1.57 3.32 3.22 4.95 4.85-10.23.28-20.47.2-30.71.08-.01-1.06-.03-3.18-.05-4.24zm440.24 26.52c3.65-.78 8.18-1.47 11.18 1.34 5.46 4.71 5.63 15.2-1.03 18.95-3.23 1.76-7.22 1.98-10.71 1-9.14-3-9.6-19.36.56-21.29zm.94 4.81c-5.09 2.61-3.4 11.45 2.44 11.66 5.26.35 7.32-6.18 4.77-10.01-1.5-2.38-4.81-2.5-7.21-1.65z"/>
    <path d="M718.42 68.56c4.82.1 9.65-.02 14.48.06.46 1.75.96 3.5 1.5 5.25-2.9-.17-5.81-.27-8.7-.36v3.15c2.52.04 5.04.05 7.57.05.12 1.3.22 2.59.3 3.9-2.42.15-4.85.2-7.26.21-.1 3.05-.1 6.1-.1 9.16-2.74.21-5.48.21-8.21.23 4.55-3.4 2.94-9.44 3.21-14.3.3-2.78-1.41-5.12-2.79-7.35zm10.37 50.2c15.26-4.8 31.44-3.37 47.1-1.95 5.02.83 10.18 1.48 14.87 3.58 2.12 1.03 1.53 3.7 1.63 5.63-.22 8.77.19 17.55-.29 26.31-4.59-4.01-9.32-8.01-14.96-10.46-12.14-5.51-26.11-6.33-39.04-3.56-6.18 1.4-12.65 4.27-15.71 10.17-2.7 4.18-2.77 9.88.23 13.93 4.72 6.06 11.23 10.52 18.13 13.78 11.33 5.29 22.72 10.45 34.09 15.66 10.13 4.47 20.21 10.61 26 20.37 6.11 10.92 5.96 24.76.49 35.92-3.91 6.88-9.41 12.76-15.68 17.54-7.54 5.79-16.62 9.07-25.63 11.8-9.42 2.91-19.38 2.15-29.08 1.78-11.25-1.11-22.59-2.75-33.25-6.61-2.48-11.83-5.77-23.51-7.69-35.45 7.1 5.19 13.71 11.13 21.51 15.29 12.55 6.77 27.29 9.49 41.41 7.29 10.18-.89 19.96-6.38 25.6-14.96 3.15-5.26 5.69-11.82 3.4-17.89-3.45-7.18-10.22-11.99-16.97-15.81-9.71-5.22-19.86-9.54-29.79-14.3-11.53-5.29-23.44-11.33-31.16-21.78-4.8-6.26-6.82-14.32-6.28-22.13 1.93-16.54 15.61-29.49 31.07-34.15zm-683.43-1.04c12.04-.17 24.09-.06 36.13-.05-.08 46.69 0 93.37-.04 140.05 19.62-.07 39.25-.04 58.88-.01-6.49 8.28-13.41 16.27-20.55 23.99-26.25.3-52.53.19-78.79.05 4.15-5.1 8.46-10.05 12.6-15.15 1.28-1.7 2.98-3.46 2.9-5.74.14-40.95-.03-81.91.15-122.87.01-2.75.16-5.75-1.62-8.06-3.06-4.19-6.65-7.97-9.66-12.21zm206.86 37.52c11.76-10.41 27.23-16.03 42.71-17.59 8.18-.03 16.35-1.3 24.51-.33 6.79.31 13.4 2.2 20.2 2.46-.33 7.97-.23 15.96-1.02 23.9-15.74-5.7-32.82-9.4-49.54-6.29-11.62 1.92-22.38 9.23-27.93 19.69-5.44 10.02-5.88 22.18-2.74 33 3.18 10.37 10.01 19.55 18.97 25.65 7.31 4.85 15.89 7.6 24.58 8.55 8.89.89 17.66-1.33 26.46-2.21.15-10.37-.04-20.76.18-31.13.14-1.77-1.38-2.96-2.31-4.26-3.15-3.55-6.38-7.04-9.28-10.81 11.5-.06 23.01.02 34.51-.03-.11 20.17.36 40.36-.18 60.52-5.4 1.36-10.94 2-16.41 3.02-8.87 1.56-17.91 1.05-26.85 1.77-10.54.73-20.93-1.72-31.07-4.28-9.16-2.23-17.45-7.15-24.75-13.01-11.93-10.08-19.08-25.32-19.77-40.88-1.25-17.85 6.44-35.86 19.73-47.74z"/>
    <path d="M146.54 141.31c26.63-.09 53.26-.07 79.89-.01-.03 8.35.06 16.69-.08 25.04-2.66-2.6-4.93-5.78-8.29-7.5-13.17-.29-26.36-.06-39.53-.11-.04 8.5 0 17.01-.03 25.52 9.65.03 19.31-.01 28.96.01-.03 6.14-.01 12.28-.03 18.42-9.65 0-19.3-.02-28.95 0 .05 12.03.06 24.07-.01 36.1 17.42.2 34.87-.47 52.27.6 5.76 4.36 10.39 10.21 15.46 15.4-22.06.22-44.12.03-66.18.1-11.91-.02-23.83.02-35.74-.03 3.58-3.86 7.5-7.39 11.01-11.32.97-.95 1.33-2.24 1.22-3.56.01-28.02.06-56.03.04-84.04.22-1.78-1-3.16-1.98-4.48-2.68-3.38-5.2-6.89-8.03-10.14zm214.46.09c26.56-.29 53.12-.07 79.68-.12-.03 8.39.1 16.79-.11 25.18-3.43-2.66-5.58-8.19-10.58-7.75-12.28-.02-24.55.05-36.83-.04-.52 8.51-.67 17.15.09 25.62 9.47-.08 18.94-.01 28.41-.03.02 6.16.03 12.32.01 18.48-9.63-.07-19.27-.02-28.9-.03.02 12 .05 24.01-.01 36.02 15.08.12 30.16.06 45.24.06 2.73-.11 5.45.25 8.14.75-3.13 5.25-6.14 10.8-10.38 15.24-17.92.14-35.84.14-53.76.37-7.87-.12-15.75.29-23.59-.41 3.85-3.6 7.63-7.29 11.17-11.2 1.28-1.14 1.25-2.92 1.28-4.48-.1-25.36.44-50.69.3-76.06-.22-3.51.84-7.54-1.46-10.57-2.8-3.75-5.71-7.42-8.7-11.03zm218.63-.13c19.79-.16 39.59-.12 59.38-.01 15.62-.04 30.71 8.25 39.89 20.73 7.94 10.48 11.17 24.07 10.27 37.06-1.56 16.95-10.5 32.91-23.53 43.73-7.97 6.84-18.15 11.3-28.7 11.72-15.99.48-31.99.13-47.97.67-3.06.06-6.11-.17-9.15-.42 8.39-6.5 9.53-17.9 9.66-27.73.07-22.34.14-44.69.03-67.03.14-7.47-3.89-14.43-9.88-18.72zm30.19 16c.54 5.56.26 11.16.33 16.75-.34 22.15.48 44.3-.34 66.44 3.41-.1 6.79-.64 10.2-.74 11.43.01 23.15-2.56 32.84-8.81 7.3-4.62 12.27-12.37 14.23-20.71 2.57-10.75 1.55-22.37-2.82-32.51-4.61-10.03-14.7-16.28-25.12-18.85-8.61-1.91-17.46-1.96-26.22-1.68-.78.02-2.32.08-3.1.11zm-155.77-15.06c8.96-.08 17.93-.11 26.89.04 2.61-.07 4.17 2.43 5.99 3.94 19.42 19.38 38.62 38.98 57.64 58.76.05-20.88 0-41.77.02-62.65 10.02.06 20.05-.06 30.07.08-3.84 2.94-8.03 5.58-11.1 9.38-.03 35.64.09 71.28-.1 106.92-6.15-5.89-11.41-12.61-17.37-18.68-20.53-22.25-41.19-44.39-61.45-66.89-.44-.63-1.03-.87-1.77-.7.17 4.53.36 9.06.29 13.6-.38 7.98.33 15.97-.28 23.95.16 15.49.68 31.01-.09 46.49-10.76-.11-21.52 0-32.27-.06 3.34-3.4 7.29-6.07 10.9-9.15 1.61-1.23 1.84-3.39 1.82-5.26-.04-28.99-.07-57.98-.01-86.96.43-6.05-5.96-8.69-9.18-12.81zm289.7 110.09c9.79-5.76 19.28-12.14 27.54-20 1.77 3.28 2.36 7.61-.34 10.59-6.93 7.38-17.57 8.98-27.2 9.41zm-610.43 24.34c3.93-3.21 6.17-8.43 10.76-10.72 27.3.61 54.65.12 81.97.28 34.96-.07 69.93.2 104.89.16 18.66-.14 37.49-.96 55.93 2.45 7.76 1.54 15.82 3.86 21.69 9.45 3.24 2.98 5.04 7.09 6.34 11.21 2.29-6.04 5.74-12.05 11.62-15.21 7.2-3.79 15.32-5.45 23.31-6.59 21.02-1.54 42.12-1.42 63.19-1.44 55.67-.03 111.33-.04 167-.03 2.51-.03 5.01-.39 7.52-.58 1.07 3.89 1.9 7.85 2.93 11.76-6.07 1.31-12.3 1.23-18.46 1.81-70.32.18-140.65-.02-210.97.09-12.77-.08-26.11 3.29-35.98 11.73-5.81 4.97-8.99 12.3-10.11 19.75-1.84-5.94-3.5-12.23-7.82-16.93-7.61-8.48-19.01-12.57-30.1-13.82-6.96-1.05-14.01-.65-21.02-.74-57.69-.05-115.37.14-173.05.01-15.14.33-30.23-.68-45.3-1.86-.56.58-1.5 1.85-1.64.24-.67-.25-2.02-.77-2.7-1.02z"/>
  </symbol>
  <symbol id="steam" viewBox="0 0 112 27">
    <path d="M68.372 11.28c-.578.45-1.316.675-2.223.675-.66 0-1.23-.083-1.72-.252a3.457 3.457 0 0 1-1.33-.846l1.052-1.052c.25.25.542.43.883.538.34.11.716.166 1.13.166.982 0 1.475-.35 1.475-1.04 0-.29-.076-.52-.224-.68-.146-.16-.404-.27-.772-.32l-.47-.07-.538-.07c-.713-.106-1.254-.33-1.62-.69-.4-.4-.6-.948-.6-1.64 0-.757.263-1.37.785-1.83.525-.466 1.23-.697 2.124-.697.582 0 1.09.072 1.52.226.43.153.82.4 1.17.744l-1.03 1.02a1.82 1.82 0 0 0-.778-.456 3.52 3.52 0 0 0-.93-.12c-.418 0-.736.1-.958.3a.964.964 0 0 0-.336.754c0 .218.086.416.257.588.17.175.424.287.76.334l.502.07.48.07c.375.053.688.132.94.233.256.1.47.236.65.41.43.403.646.993.646 1.77 0 .79-.29 1.404-.862 1.854zm6.988-6.29v6.89h-1.63V4.99h-2.178V3.54h5.986v1.45H75.36zm5.607 6.888V3.54h5.496v1.45H82.6v1.967h3.29v1.447H82.6v2.03h3.863v1.446h-5.496zm13.93 0l-.49-1.477h-2.962l-.504 1.48h-1.69l3.037-8.33h1.275l3.04 8.333h-1.7zM92.957 6L91.9 9.028h2.072L92.956 6zm12.454 5.878V7.02l-1.58 3.163h-1.1l-1.6-3.162v4.86H99.5V3.54h1.61l2.17 4.508 2.16-4.507h1.61v8.34h-1.64zm5.17-8.594c.6 0 1.08.486 1.08 1.094a1.08 1.08 0 0 1-2.16 0c0-.608.48-1.094 1.08-1.094zm0 .172c-.48 0-.87.41-.87.922 0 .52.39.928.87.928.49.005.88-.408.88-.923 0-.516-.39-.927-.88-.927zm-.2 1.56h-.2v-1.22c.1-.015.2-.03.35-.03.18 0 .3.04.38.092.07.054.11.136.11.253 0 .17-.11.26-.24.3v.01c.11.02.18.12.2.3.03.19.06.265.08.304h-.2c-.03-.04-.06-.15-.09-.31-.03-.157-.1-.214-.26-.214h-.13v.524zm0-.678h.14c.16 0 .29-.057.29-.208 0-.107-.08-.213-.29-.213-.07 0-.11.004-.14.01v.41z"/>
    <path d="M51.542 0c-4.37 0-7.926 3.555-7.926 7.925 0 .035 0 .07.002.103l-5.106 7.404a5.748 5.748 0 0 0-2.444.432 5.61 5.61 0 0 0-.977.515L12.08 6.86a5.787 5.787 0 0 0-3.428-4.13 5.795 5.795 0 0 0-7.567 3.12 5.792 5.792 0 0 0 3.117 7.566 5.756 5.756 0 0 0 5.363-.48l23.062 9.532a5.774 5.774 0 0 0 3.418 4.08 5.792 5.792 0 0 0 8.01-5.493l7.307-5.21.18.002c4.37 0 7.925-3.558 7.925-7.928S55.913-.01 51.542-.01M4.712 12.2a4.47 4.47 0 0 1-2.748-4.127 4.467 4.467 0 0 1 6.18-4.115 4.436 4.436 0 0 1 2.324 2.24l-2.64-1.09A3.288 3.288 0 0 0 5.3 11.175l2.65 1.094a4.412 4.412 0 0 1-3.24-.07m37.682 10.73a4.472 4.472 0 0 1-5.84 2.4 4.44 4.44 0 0 1-2.297-2.19l2.58 1.07a3.287 3.287 0 1 0 2.528-6.07l-2.667-1.105c1.03-.39 2.2-.404 3.292.05a4.426 4.426 0 0 1 2.41 2.42 4.433 4.433 0 0 1-.006 3.416m9.15-9.723c-2.91 0-5.28-2.37-5.28-5.283 0-2.91 2.37-5.28 5.28-5.28s5.28 2.37 5.28 5.28a5.288 5.288 0 0 1-5.28 5.284m.008-1.324a3.967 3.967 0 1 1 .005-7.934 3.967 3.967 0 0 1-.005 7.932"/>
  </symbol>
  <symbol id="mafia-guy" viewBox="0 0 316 178">
    <path d="M.98 163.044l37.416-74.83v-30.58a6.42 6.42 0 0 1 8.804-5.96l80.25 32.1a6.425 6.425 0 0 1 3.808 4.27l7.784 28.477h92.6v-.26a6.42 6.42 0 0 1 12.84 0v.26h.256a6.42 6.42 0 0 1 0 12.84h-36.566v41.73a6.42 6.42 0 0 1-6.42 6.42h-21.214a6.42 6.42 0 0 1-6.42-6.42v-20.515h-24.194l-11.098 23.28a6.425 6.425 0 0 1-5.794 3.66h-16.69a6.42 6.42 0 0 1-6.42-6.42V153.83l-54.964 23.175a6.42 6.42 0 0 1-8.914-5.915v-48.15a6.42 6.42 0 0 1 6.42-6.42h73.265l-6.02-22.01-68.477-27.392V85.11l43.76 14.586a6.423 6.423 0 0 1 4.06 8.122 6.417 6.417 0 0 1-8.122 4.06L48.066 97.59 12.46 168.796a6.424 6.424 0 0 1-8.614 2.87 6.435 6.435 0 0 1-2.866-8.622zm121.78-25.314h51.362v-8.37l-51.358-.002v8.373h-.003zm64.2 26.937h8.373v-35.31h-8.372v35.31zm-57.977 0l6.718-14.098h-12.94v14.095h6.225zm-70.1-3.254l51.04-21.52v-10.535h-51.04v32.055z"/>
    <path d="M157.162 45.434h-21.71l11.405 22.807a6.424 6.424 0 0 1-.28 6.25 6.426 6.426 0 0 1-5.46 3.046h-16.05a6.42 6.42 0 0 1 0-12.84h5.66l-5.23-10.46c-4.105 4.444-9.967 7.25-16.48 7.25-10.16 0-18.755-6.78-21.527-16.05H28.765a6.42 6.42 0 0 1 0-12.84h25.68V6.916a6.42 6.42 0 0 1 7.98-6.23l30.54 7.636L123.508.685a6.417 6.417 0 0 1 7.978 6.23v25.68h25.68a6.42 6.42 0 0 1-.003 12.84zm-48.146 3.208c2.836 0 5.36-1.256 7.124-3.212h-14.25c1.764 1.96 4.29 3.212 7.126 3.212zm9.627-33.507L94.52 21.163a6.453 6.453 0 0 1-3.113 0l-24.122-6.028V32.59h51.358V15.136zm146.525 119.312l16.05 16.05a6.42 6.42 0 1 1-9.077 9.077l-16.05-16.05a6.42 6.42 0 1 1 9.08-9.077zM272.14 86.3a6.42 6.42 0 1 1 9.078 9.078l-16.05 16.05a6.39 6.39 0 0 1-4.54 1.88 6.42 6.42 0 0 1-4.54-10.958l16.054-16.05zm-1.88 36.64a6.42 6.42 0 0 1 6.42-6.42h32.1a6.42 6.42 0 0 1 0 12.838h-32.1a6.42 6.42 0 0 1-6.42-6.42z"/>
  </symbol>
</svg>